<svg width="455" height="313" viewBox="0 0 455 313" fill="none" xmlns="http://www.w3.org/2000/svg">
<g clip-path="url(#clip0)">
<path d="M73.9168 145.751C80.5775 145.751 85.9771 140.015 85.9771 132.94C85.9771 125.864 80.5775 120.129 73.9168 120.129C67.2562 120.129 61.8566 125.864 61.8566 132.94C61.8566 140.015 67.2562 145.751 73.9168 145.751Z" fill="#FFB8B8"/>
<path d="M33.1657 286.457L36.2194 291.968L57.6834 282.079L53.1762 273.946L33.1657 286.457Z" fill="#FFB8B8"/>
<path d="M34.0807 283.993L40.0946 294.845L40.0948 294.846C40.5981 295.754 40.928 296.759 41.0658 297.803C41.2035 298.846 41.1464 299.909 40.8976 300.929C40.6489 301.949 40.2134 302.907 39.616 303.749C39.0186 304.59 38.2711 305.298 37.416 305.833L37.2044 305.965L27.358 288.196L34.0807 283.993Z" fill="#2F2E41"/>
<path d="M68.5479 306.311L74.568 306.31L77.4317 281.645L68.547 281.645L68.5479 306.311Z" fill="#FFB8B8"/>
<path d="M67.0125 304.223L78.8679 304.222H78.8683C79.8605 304.222 80.843 304.43 81.7596 304.833C82.6763 305.236 83.5092 305.827 84.2107 306.573C84.9123 307.318 85.4688 308.203 85.8485 309.176C86.2282 310.15 86.4236 311.194 86.4236 312.248V312.508L67.0129 312.509L67.0125 304.223Z" fill="#2F2E41"/>
<path d="M44.3457 291.367C43.9993 291.367 43.6576 291.281 43.3485 291.115C43.0393 290.948 42.7713 290.707 42.5662 290.411L36.7604 282.035C36.5833 281.779 36.4568 281.488 36.3885 281.179C36.3203 280.87 36.3117 280.55 36.3633 280.237C36.4149 279.925 36.5257 279.627 36.6888 279.361C36.852 279.095 37.0642 278.867 37.3126 278.691L63.1477 260.362L47.5591 216.822L80.8948 219.744L82.0176 257.16C82.123 260.567 81.3541 263.941 79.7933 266.92C78.2325 269.899 75.9386 272.371 73.1569 274.072L45.4497 291.051C45.1143 291.258 44.7334 291.367 44.3457 291.367V291.367Z" fill="#2F2E41"/>
<path d="M68.7297 301.303C68.158 301.302 67.6089 301.065 67.1979 300.643C66.7869 300.221 66.5459 299.646 66.5256 299.039L65.3039 262.59L80.4317 261.743L79.2272 298.455C79.2094 299.036 78.9884 299.59 78.6071 300.008C78.2258 300.426 77.7117 300.678 77.165 300.715L68.8799 301.298C68.8297 301.302 68.7795 301.303 68.7297 301.303Z" fill="#2F2E41"/>
<path d="M84.7528 226.982C80.9039 226.982 67.4604 222.384 62.7933 220.744C62.0951 221.338 58.2595 224.384 53.7824 223.828C51.0198 223.483 48.5878 221.822 46.5539 218.89C42.0625 212.415 47.6099 184.647 53.0547 162.493C54.1462 158.014 56.8297 154.16 60.5409 151.74C64.2522 149.32 68.7022 148.523 72.9555 149.515V149.515C76.0382 150.238 78.8701 151.86 81.1329 154.198C83.3958 156.537 85 159.499 85.7653 162.752C86.7904 167.185 85.9086 172.399 85.2647 176.206C84.962 177.996 84.7228 179.41 84.8046 180.105C85.1206 182.79 86.8761 224.906 85.7473 226.704C85.6271 226.896 85.2794 226.982 84.7528 226.982Z" fill="#0B6198"/>
<path d="M70.6725 227.057C71.2911 226.568 71.8012 225.94 72.1669 225.219C72.5326 224.498 72.7449 223.7 72.789 222.882C72.8331 222.065 72.7078 221.246 72.422 220.486C72.1362 219.725 71.6969 219.04 71.1349 218.479L71.3732 167.444L60.0575 169.446L63.3814 218.982C62.5568 220.047 62.1288 221.397 62.1784 222.775C62.228 224.153 62.7518 225.464 63.6505 226.459C64.5492 227.455 65.7604 228.065 67.0546 228.175C68.3489 228.285 69.6361 227.887 70.6725 227.057V227.057Z" fill="#FFB8B8"/>
<path d="M73.2897 200.219H61.1014C60.5194 200.217 59.9614 199.972 59.548 199.537C59.1345 199.102 58.8988 198.511 58.8918 197.893L58.5926 162.794C58.5822 161.581 58.7985 160.377 59.2289 159.252C59.6592 158.128 60.2952 157.106 61.0999 156.244C61.9047 155.382 62.8623 154.699 63.9173 154.233C64.9723 153.767 66.1038 153.528 67.2464 153.529C68.389 153.531 69.5199 153.773 70.5739 154.242C71.6278 154.71 72.5838 155.396 73.3866 156.26C74.1893 157.124 74.8229 158.148 75.2507 159.273C75.6785 160.399 75.892 161.603 75.8789 162.817L75.4992 197.899C75.4906 198.516 75.2542 199.105 74.841 199.539C74.4278 199.973 73.8707 200.217 73.2897 200.219V200.219Z" fill="#0B6198"/>
<path d="M70.846 145.697C65.3242 145.708 60.1149 141.072 59.1581 135.295C58.8155 133.025 58.9699 130.703 59.6094 128.507C60.3038 126.007 61.4946 123.695 63.1015 121.726C64.7084 119.756 66.6941 118.176 68.9247 117.091C71.1553 116.006 73.579 115.441 76.0325 115.435C78.4859 115.429 80.912 115.982 83.1472 117.057C84.6243 117.767 86.0793 118.786 86.7557 120.352C87.4321 121.917 87.0088 124.105 85.5292 124.809C84.5622 125.269 83.3489 125.043 82.4911 125.704C81.2589 126.653 81.5761 128.673 82.1263 130.18C82.6765 131.687 83.2988 133.511 82.3765 134.797C81.517 135.995 79.7992 135.958 78.4461 135.507C77.093 135.056 75.7574 134.301 74.3466 134.455C72.289 134.679 70.8104 136.853 70.5367 139.031C70.263 141.208 70.9073 143.385 71.5434 145.476L70.846 145.697Z" fill="#2F2E41"/>
<path d="M127.177 313H0.491031C0.360801 313 0.235905 312.945 0.143819 312.847C0.0517331 312.749 0 312.617 0 312.478C0 312.34 0.0517331 312.207 0.143819 312.11C0.235905 312.012 0.360801 311.957 0.491031 311.957H127.177C127.307 311.957 127.432 312.012 127.524 312.11C127.616 312.207 127.668 312.34 127.668 312.478C127.668 312.617 127.616 312.749 127.524 312.847C127.432 312.945 127.307 313 127.177 313Z" fill="#CCCCCC"/>
<path d="M446.898 226.657H132.226C130.078 226.654 128.019 225.747 126.5 224.133C124.981 222.52 124.127 220.332 124.124 218.051V11.9414C124.126 10.2697 124.752 8.66709 125.865 7.48505C126.978 6.303 128.486 5.63807 130.06 5.63615H448.962C450.563 5.63808 452.097 6.31449 453.229 7.51697C454.361 8.71946 454.998 10.3498 455 12.0504V218.051C454.998 220.332 454.143 222.52 452.624 224.133C451.105 225.747 449.046 226.654 446.898 226.657V226.657Z" fill="#F2F2F2"/>
<path d="M436.724 215.791H143.458C139.159 215.791 135.662 212.312 135.662 208.036V28.5532C135.662 25.3819 138.253 22.8017 141.439 22.8017H438.647C441.886 22.8017 444.52 25.4244 444.52 28.648V208.036C444.52 212.312 441.023 215.791 436.724 215.791Z" fill="white"/>
<path d="M454.887 13.0138H124.011V8.63226C124.014 6.34294 124.872 4.14841 126.396 2.53011C127.92 0.911812 129.987 0.0019059 132.142 7.62939e-06H446.756C448.911 0.00188659 450.977 0.911785 452.502 2.53009C454.026 4.14839 454.884 6.34293 454.887 8.63226V13.0138Z" fill="#3F3D56"/>
<path d="M138.788 8.75411C139.95 8.75411 140.892 7.75382 140.892 6.51991C140.892 5.28599 139.95 4.28571 138.788 4.28571C137.627 4.28571 136.685 5.28599 136.685 6.51991C136.685 7.75382 137.627 8.75411 138.788 8.75411Z" fill="white"/>
<path d="M146.772 8.75411C147.934 8.75411 148.875 7.75382 148.875 6.51991C148.875 5.28599 147.934 4.28571 146.772 4.28571C145.61 4.28571 144.669 5.28599 144.669 6.51991C144.669 7.75382 145.61 8.75411 146.772 8.75411Z" fill="white"/>
<path d="M154.756 8.75411C155.917 8.75411 156.859 7.75382 156.859 6.51991C156.859 5.28599 155.917 4.28571 154.756 4.28571C153.594 4.28571 152.652 5.28599 152.652 6.51991C152.652 7.75382 153.594 8.75411 154.756 8.75411Z" fill="white"/>
<path d="M283.134 62.0458H225.777C224.922 62.0458 224.102 61.685 223.497 61.0427C222.893 60.4004 222.553 59.5293 222.553 58.6209C222.553 57.7126 222.893 56.8415 223.497 56.1992C224.102 55.5569 224.922 55.1961 225.777 55.1961H283.134C283.989 55.1961 284.809 55.5569 285.413 56.1992C286.018 56.8415 286.358 57.7126 286.358 58.6209C286.358 59.5293 286.018 60.4004 285.413 61.0427C284.809 61.685 283.989 62.0458 283.134 62.0458V62.0458Z" fill="#CCCCCC"/>
<path d="M354.405 62.0458H297.049C296.193 62.0458 295.373 61.685 294.769 61.0427C294.164 60.4004 293.824 59.5293 293.824 58.6209C293.824 57.7126 294.164 56.8415 294.769 56.1992C295.373 55.5569 296.193 55.1961 297.049 55.1961H354.405C355.26 55.1961 356.08 55.5569 356.685 56.1992C357.289 56.8415 357.629 57.7126 357.629 58.6209C357.629 59.5293 357.289 60.4004 356.685 61.0427C356.08 61.685 355.26 62.0458 354.405 62.0458V62.0458Z" fill="#CCCCCC"/>
<path d="M354.405 75.0242H254.625C253.77 75.0242 252.95 74.6633 252.345 74.021C251.741 73.3788 251.401 72.5076 251.401 71.5993C251.401 70.691 251.741 69.8199 252.345 69.1776C252.95 68.5353 253.77 68.1745 254.625 68.1745H354.405C355.26 68.1745 356.08 68.5353 356.685 69.1776C357.289 69.8199 357.629 70.691 357.629 71.5993C357.629 72.5076 357.289 73.3788 356.685 74.021C356.08 74.6633 355.26 75.0242 354.405 75.0242Z" fill="#CCCCCC"/>
<path d="M283.134 48.8872H225.777C224.923 48.886 224.104 48.5247 223.5 47.8825C222.896 47.2404 222.557 46.3699 222.557 45.4623C222.557 44.5547 222.896 43.6842 223.5 43.0421C224.104 42.3999 224.923 42.0386 225.777 42.0375H283.134C283.557 42.0369 283.977 42.1251 284.369 42.2969C284.76 42.4688 285.116 42.721 285.416 43.0391C285.716 43.3572 285.954 43.7349 286.116 44.1507C286.278 44.5665 286.362 45.0122 286.362 45.4623C286.362 45.9124 286.278 46.3581 286.116 46.7739C285.954 47.1897 285.716 47.5675 285.416 47.8855C285.116 48.2036 284.76 48.4558 284.369 48.6277C283.977 48.7995 283.557 48.8877 283.134 48.8872V48.8872Z" fill="#CCCCCC"/>
<path d="M314.697 49.0674H298.406C297.551 49.0674 296.731 48.7066 296.126 48.0643C295.522 47.422 295.182 46.5509 295.182 45.6426C295.182 44.7342 295.522 43.8631 296.126 43.2208C296.731 42.5785 297.551 42.2177 298.406 42.2177H314.697C315.552 42.2177 316.372 42.5785 316.976 43.2208C317.581 43.8631 317.921 44.7342 317.921 45.6426C317.921 46.5509 317.581 47.422 316.976 48.0643C316.372 48.7066 315.552 49.0674 314.697 49.0674Z" fill="#CCCCCC"/>
<path d="M242.068 75.0242H225.777C224.923 75.023 224.104 74.6617 223.5 74.0196C222.896 73.3774 222.557 72.5069 222.557 71.5993C222.557 70.6917 222.896 69.8212 223.5 69.1791C224.104 68.5369 224.923 68.1756 225.777 68.1745H242.068C242.492 68.1739 242.911 68.2621 243.303 68.434C243.695 68.6058 244.05 68.858 244.35 69.1761C244.65 69.4942 244.888 69.8719 245.05 70.2877C245.212 70.7035 245.296 71.1492 245.296 71.5993C245.296 72.0494 245.212 72.4951 245.05 72.9109C244.888 73.3267 244.65 73.7045 244.35 74.0225C244.05 74.3406 243.695 74.5928 243.303 74.7647C242.911 74.9365 242.492 75.0247 242.068 75.0242Z" fill="#CCCCCC"/>
<path d="M283.134 183.577H225.777C224.922 183.577 224.102 183.216 223.497 182.574C222.893 181.932 222.553 181.06 222.553 180.152C222.553 179.244 222.893 178.373 223.497 177.73C224.102 177.088 224.922 176.727 225.777 176.727H283.134C283.557 176.727 283.976 176.816 284.367 176.988C284.759 177.16 285.114 177.412 285.413 177.73C285.713 178.048 285.95 178.426 286.112 178.841C286.274 179.257 286.358 179.702 286.358 180.152C286.358 180.602 286.274 181.047 286.112 181.463C285.95 181.878 285.713 182.256 285.413 182.574C285.114 182.892 284.759 183.144 284.367 183.316C283.976 183.488 283.557 183.577 283.134 183.577V183.577Z" fill="#CCCCCC"/>
<path d="M354.405 183.577H297.049C296.193 183.577 295.373 183.216 294.769 182.574C294.164 181.932 293.824 181.06 293.824 180.152C293.824 179.244 294.164 178.373 294.769 177.73C295.373 177.088 296.193 176.727 297.049 176.727H354.405C354.828 176.727 355.248 176.816 355.639 176.988C356.03 177.16 356.385 177.412 356.685 177.73C356.984 178.048 357.222 178.426 357.384 178.841C357.546 179.257 357.629 179.702 357.629 180.152C357.629 180.602 357.546 181.047 357.384 181.463C357.222 181.878 356.984 182.256 356.685 182.574C356.385 182.892 356.03 183.144 355.639 183.316C355.248 183.488 354.828 183.577 354.405 183.577V183.577Z" fill="#CCCCCC"/>
<path d="M354.405 196.555H254.625C253.77 196.555 252.95 196.194 252.345 195.552C251.741 194.91 251.401 194.039 251.401 193.13C251.401 192.222 251.741 191.351 252.345 190.709C252.95 190.066 253.77 189.706 254.625 189.706H354.405C354.829 189.705 355.248 189.793 355.64 189.965C356.032 190.137 356.387 190.389 356.687 190.707C356.987 191.025 357.225 191.403 357.387 191.819C357.55 192.235 357.633 192.68 357.633 193.13C357.633 193.581 357.55 194.026 357.387 194.442C357.225 194.858 356.987 195.236 356.687 195.554C356.387 195.872 356.032 196.124 355.64 196.296C355.248 196.468 354.829 196.556 354.405 196.555Z" fill="#CCCCCC"/>
<path d="M283.134 170.418H225.777C224.922 170.418 224.102 170.057 223.497 169.415C222.893 168.773 222.553 167.902 222.553 166.993C222.553 166.085 222.893 165.214 223.497 164.572C224.102 163.929 224.922 163.569 225.777 163.569H283.134C283.989 163.569 284.809 163.929 285.413 164.572C286.018 165.214 286.358 166.085 286.358 166.993C286.358 167.902 286.018 168.773 285.413 169.415C284.809 170.057 283.989 170.418 283.134 170.418Z" fill="#CCCCCC"/>
<path d="M314.697 170.599H298.406C297.551 170.599 296.731 170.238 296.126 169.595C295.522 168.953 295.182 168.082 295.182 167.174C295.182 166.265 295.522 165.394 296.126 164.752C296.731 164.11 297.551 163.749 298.406 163.749H314.697C315.552 163.749 316.372 164.11 316.976 164.752C317.581 165.394 317.921 166.265 317.921 167.174C317.921 168.082 317.581 168.953 316.976 169.595C316.372 170.238 315.552 170.599 314.697 170.599V170.599Z" fill="#CCCCCC"/>
<path d="M242.068 196.555H225.777C224.922 196.555 224.102 196.194 223.497 195.552C222.893 194.91 222.553 194.039 222.553 193.13C222.553 192.222 222.893 191.351 223.497 190.709C224.102 190.066 224.922 189.706 225.777 189.706H242.068C242.492 189.705 242.911 189.793 243.303 189.965C243.695 190.137 244.05 190.389 244.35 190.707C244.65 191.025 244.888 191.403 245.05 191.819C245.212 192.235 245.296 192.68 245.296 193.13C245.296 193.581 245.212 194.026 245.05 194.442C244.888 194.858 244.65 195.236 244.35 195.554C244.05 195.872 243.695 196.124 243.303 196.296C242.911 196.468 242.492 196.556 242.068 196.555Z" fill="#CCCCCC"/>
<path d="M268.154 146.808C266.937 146.811 265.768 146.303 264.902 145.395L243.341 122.779C242.918 122.335 242.582 121.806 242.352 121.223C242.123 120.64 242.005 120.014 242.005 119.382C242.005 118.751 242.123 118.125 242.352 117.542C242.582 116.959 242.918 116.43 243.341 115.986L264.814 93.4614C265.709 92.5276 266.914 92.0062 268.168 92.0104C269.423 92.0146 270.625 92.544 271.514 93.4838C272.404 94.4312 272.904 95.7149 272.904 97.0532C272.904 98.3916 272.404 99.6753 271.514 100.623L255.557 117.573C255.06 118.102 254.781 118.819 254.781 119.567C254.781 120.315 255.06 121.032 255.557 121.561L271.427 138.419C272.075 139.106 272.517 139.982 272.696 140.936C272.875 141.89 272.783 142.878 272.433 143.777C272.082 144.675 271.488 145.443 270.727 145.983C269.965 146.522 269.07 146.81 268.154 146.808V146.808Z" fill="#D96ED4"/>
<path d="M302.509 146.808C301.594 146.81 300.698 146.522 299.936 145.983C299.175 145.443 298.581 144.675 298.23 143.777C297.88 142.878 297.788 141.89 297.967 140.936C298.146 139.982 298.588 139.106 299.236 138.419L315.106 121.561C315.603 121.032 315.882 120.315 315.882 119.567C315.882 118.819 315.603 118.102 315.106 117.573L299.149 100.623C298.708 100.154 298.358 99.5975 298.119 98.985C297.88 98.3726 297.757 97.7161 297.757 97.0532C297.757 96.3903 297.88 95.7339 298.119 95.1215C298.358 94.509 298.708 93.9525 299.149 93.4838V93.4838C300.038 92.544 301.24 92.0145 302.495 92.0103C303.749 92.0061 304.954 92.5276 305.849 93.4614L327.322 115.986C327.745 116.43 328.081 116.959 328.311 117.542C328.54 118.125 328.658 118.751 328.658 119.382C328.658 120.014 328.54 120.64 328.311 121.223C328.081 121.806 327.745 122.335 327.322 122.779L305.762 145.395C304.895 146.303 303.726 146.811 302.509 146.808Z" fill="#D96ED4"/>
</g>
<defs>
<clipPath id="clip0">
<rect width="455" height="313" fill="white"/>
</clipPath>
</defs>
</svg>
