<svg width="754" height="699" viewBox="0 0 754 699" fill="none" xmlns="http://www.w3.org/2000/svg">
<path d="M709.524 564.741C709.524 608.059 683.763 623.186 651.987 623.186C651.248 623.186 650.512 623.178 649.78 623.158C648.308 623.126 646.849 623.062 645.409 622.958C616.729 620.931 594.447 605.025 594.447 564.741C594.447 523.055 647.729 470.451 651.748 466.545L651.756 466.541C651.908 466.389 651.987 466.313 651.987 466.313C651.987 466.313 709.524 521.42 709.524 564.741Z" fill="#A19EC4"/>
<path d="M649.888 616.558L670.935 587.164L649.836 619.784L649.78 623.158C648.308 623.126 646.849 623.062 645.409 622.958L647.677 579.62L647.661 579.285L647.701 579.221L647.913 575.127L626.762 542.423L647.977 572.057L648.029 572.924L649.744 540.18L631.637 506.389L649.964 534.428L651.748 466.545L651.756 466.313V466.541L651.46 520.073L669.483 498.849L651.384 524.682L650.908 554L667.739 525.865L650.836 558.317L650.572 574.615L675.005 535.451L650.48 580.304L649.888 616.558Z" fill="#F2F2F2"/>
<path d="M132.745 611.308C132.745 637.264 117.309 646.328 98.2692 646.328C97.8259 646.328 97.385 646.323 96.9465 646.311C96.0647 646.292 95.1901 646.254 94.3275 646.191C77.1423 644.977 63.7908 635.446 63.7908 611.308C63.7908 586.33 95.7172 554.809 98.1253 552.469L98.1301 552.467C98.2212 552.376 98.2691 552.33 98.2691 552.33C98.2691 552.33 132.745 585.35 132.745 611.308Z" fill="#A19EC3"/>
<path d="M97.0112 642.356L109.622 624.743L96.98 644.289L96.9465 646.311C96.0647 646.292 95.1901 646.254 94.3275 646.191L95.6861 620.223L95.6765 620.022L95.7005 619.984L95.8275 617.531L83.1542 597.935L95.8658 615.692L95.897 616.211L96.9249 596.591L86.0751 576.343L97.0567 593.144L98.1254 552.469L98.1302 552.33V552.467L97.9528 584.543L108.752 571.826L97.9073 587.304L97.6222 604.872L107.708 588.013L97.579 607.459L97.4209 617.225L112.061 593.757L97.3658 620.633L97.0112 642.356Z" fill="#F2F2F2"/>
<path d="M403.278 191.14H131.158V450.324H403.278V191.14Z" fill="url(#paint0_linear)"/>
<path d="M397.438 196.977H136.998V444.486H397.438V196.977Z" fill="white"/>
<path d="M388.095 206.317H146.341V435.146H388.095V206.317Z" fill="#0B6198"/>
<g opacity="0.5">
<path opacity="0.5" d="M362.401 0H5.02557V156.115H362.401V0Z" fill="url(#paint1_linear)"/>
</g>
<path d="M357.73 2.00589H9.69714V151.445H357.73V2.00589Z" fill="white"/>
<path d="M347.73 11.3459H19.6972V142.105H347.73V11.3459Z" fill="#0B6198"/>
<path d="M642.696 0.838409H437.147V206.317H642.696V0.838409Z" fill="url(#paint2_linear)"/>
<path d="M636.857 6.67587H442.986V200.48H636.857V6.67587Z" fill="white"/>
<path d="M627.513 16.0158H452.329V191.14H627.513V16.0158Z" fill="#0B6198"/>
<path d="M710.119 233H438V438.479H710.119V233Z" fill="url(#paint3_linear)"/>
<path d="M704.28 238.837H443.839V432.642H704.28V238.837Z" fill="white"/>
<path d="M694.937 248.177H453.183V423.302H694.937V248.177Z" fill="#0B6198"/>
<path d="M501.171 335.347C501.136 346.426 511.925 356.802 528.968 362.685C525.506 379.82 528.259 393.649 537.583 399.063C547.165 404.628 561.48 400.842 575.093 389.022C588.29 400.448 601.649 404.97 610.999 399.599C620.608 394.079 623.571 379.331 620.126 361.639C637.915 355.822 647.883 347.035 647.918 335.81C647.952 324.989 637.141 315.593 620.328 309.747C624.155 291.347 621.004 277.853 611.294 272.215C601.934 266.78 588.39 271.449 574.926 283.088C560.995 270.645 547.612 266.817 537.877 272.409C528.491 277.801 525.773 291.864 529.136 309.337C512.633 315.031 501.205 324.569 501.171 335.347Z" fill="white"/>
<path d="M616.745 315.488C615.359 315.008 613.962 314.563 612.554 314.153C612.79 313.204 613.009 312.252 613.211 311.295C616.435 295.894 614.398 283.473 607.32 279.364C600.534 275.423 589.402 279.474 578.142 289.208C577.032 290.169 575.948 291.158 574.888 292.174C574.182 291.494 573.465 290.827 572.734 290.174C560.998 279.69 549.216 275.251 542.12 279.328C535.315 283.237 533.266 294.902 536.079 309.516C536.359 310.963 536.676 312.402 537.029 313.834C535.358 314.302 533.745 314.802 532.201 315.335C518.388 320.1 509.552 327.609 509.528 335.426C509.502 343.5 518.935 351.629 533.292 356.584C534.456 356.984 535.629 357.355 536.812 357.697C536.423 359.236 536.077 360.785 535.774 362.345C533.003 376.687 535.096 388.088 541.857 392.016C548.841 396.071 560.598 391.963 572.064 382.007C572.97 381.22 573.88 380.387 574.791 379.51C575.932 380.617 577.103 381.692 578.304 382.734C589.35 392.297 600.277 396.179 607.058 392.284C614.061 388.261 616.371 376.027 613.469 361.124C613.247 359.985 612.991 358.824 612.698 357.639C613.524 357.398 614.332 357.149 615.124 356.89C630.08 351.989 639.826 344.02 639.852 335.838C639.877 327.992 630.805 320.376 616.745 315.488H616.745Z" fill="#53C1DE"/>
<path d="M613.39 351.602C612.677 351.836 611.945 352.061 611.199 352.279C609.394 346.629 607.207 341.108 604.652 335.754C607.143 330.488 609.279 325.062 611.046 319.51C612.377 319.901 613.67 320.311 614.916 320.745C626.963 324.933 634.3 331.092 634.285 335.82C634.269 340.857 626.303 347.37 613.39 351.602H613.39ZM608.004 362.188C609.287 368.777 609.455 374.732 608.576 379.384C607.786 383.564 606.217 386.348 604.283 387.458C600.169 389.822 591.395 386.705 581.949 378.527C580.866 377.589 579.777 376.59 578.681 375.53C582.645 371.171 586.309 366.55 589.649 361.698C595.59 361.216 601.49 360.326 607.309 359.034C607.57 360.107 607.802 361.158 608.004 362.188V362.188ZM553.796 386.888C549.779 388.292 546.583 388.322 544.654 387.203C540.551 384.82 538.871 375.665 541.241 363.4C541.523 361.95 541.844 360.509 542.206 359.077C547.992 360.339 553.857 361.207 559.761 361.674C563.168 366.531 566.89 371.158 570.904 375.527C570.093 376.306 569.263 377.065 568.414 377.804C563.343 382.207 558.266 385.325 553.796 386.888H553.796ZM535.109 351.324C528.761 349.132 523.522 346.294 519.934 343.204C516.711 340.426 515.087 337.673 515.095 335.444C515.109 330.7 522.204 324.672 534.017 320.596C535.5 320.087 536.996 319.621 538.507 319.199C540.241 324.823 542.346 330.327 544.807 335.673C542.281 341.08 540.115 346.648 538.323 352.34C537.244 352.028 536.172 351.689 535.109 351.324ZM541.546 308.464C539.136 295.943 540.793 286.509 544.894 284.153C549.262 281.644 558.891 285.272 569.024 294.324C569.672 294.902 570.322 295.508 570.974 296.135C566.96 300.45 563.237 305.026 559.829 309.833C553.978 310.339 548.166 311.223 542.429 312.48C542.101 311.149 541.807 309.81 541.546 308.463V308.464ZM597.719 322.518C596.451 320.314 595.137 318.138 593.776 315.99C597.933 316.528 601.914 317.238 605.653 318.104C604.44 321.907 603.036 325.647 601.446 329.309C600.249 327.021 599.006 324.757 597.719 322.518ZM574.864 300.124C577.566 303.087 580.116 306.184 582.504 309.403C577.374 309.145 572.239 309.127 567.101 309.351C569.644 306.021 572.247 302.929 574.864 300.124ZM551.722 322.411C550.436 324.623 549.203 326.865 548.022 329.136C546.413 325.287 545.037 321.503 543.916 317.85C547.637 317.03 551.605 316.363 555.738 315.86C554.348 318.011 553.009 320.195 551.722 322.411ZM555.731 355.682C551.698 355.232 547.691 354.575 543.726 353.714C544.888 350.003 546.318 346.147 547.987 342.226C549.158 344.505 550.383 346.756 551.66 348.978C552.964 351.245 554.32 353.479 555.731 355.682V355.682ZM574.793 371.534C572.163 368.679 569.541 365.523 566.981 362.128C569.476 362.234 572.017 362.292 574.605 362.3C577.262 362.309 579.885 362.259 582.473 362.15C580.075 365.407 577.511 368.539 574.793 371.534V371.534ZM601.458 342.194C603.103 345.941 604.552 349.771 605.799 353.669C601.782 354.558 597.722 355.236 593.635 355.702C595.019 353.523 596.36 351.318 597.657 349.085C598.975 346.817 600.242 344.52 601.458 342.194V342.194ZM592.843 346.29C590.858 349.712 588.763 353.067 586.559 356.354C582.691 356.618 578.695 356.748 574.623 356.735C570.568 356.722 566.623 356.584 562.825 356.325C560.585 353.033 558.473 349.66 556.487 346.205C554.513 342.772 552.67 339.267 550.96 335.691C552.687 332.127 554.546 328.632 556.537 325.205V325.207C558.526 321.782 560.643 318.436 562.888 315.17C566.765 314.889 570.739 314.749 574.756 314.761C578.791 314.774 582.77 314.941 586.644 315.249C588.844 318.521 590.926 321.869 592.891 325.291C594.866 328.72 596.728 332.21 598.477 335.762C596.725 339.337 594.847 342.846 592.844 346.29H592.843ZM604.524 284.176C608.88 286.706 610.546 296.857 607.762 310.154C607.579 311.02 607.381 311.883 607.168 312.742C601.43 311.424 595.612 310.486 589.751 309.935C586.407 305.101 582.741 300.498 578.778 296.156C579.757 295.219 580.759 294.306 581.784 293.418C591.432 285.078 600.435 281.801 604.524 284.176V284.176Z" fill="white"/>
<path d="M574.726 323.999C577.028 324.006 579.276 324.695 581.186 325.979C583.096 327.264 584.582 329.085 585.456 331.214C586.33 333.343 586.553 335.683 586.097 337.938C585.641 340.193 584.526 342.263 582.893 343.885C581.26 345.506 579.183 346.608 576.924 347.05C574.665 347.491 572.326 347.254 570.202 346.366C568.079 345.479 566.266 343.982 564.993 342.065C563.72 340.148 563.045 337.896 563.052 335.595C563.057 334.067 563.363 332.556 563.952 331.146C564.541 329.736 565.403 328.457 566.487 327.38C567.571 326.303 568.856 325.45 570.27 324.87C571.684 324.29 573.198 323.994 574.726 323.999" fill="#53C1DE"/>
<g opacity="0.7">
<g opacity="0.1">
<path opacity="0.1" d="M574.791 490.44V515.317V523.611V634.178V642.471V665.966H541.608H530.547V642.471V634.178V523.611V515.317V490.44H541.608H574.791Z" fill="url(#paint4_linear)"/>
</g>
<g opacity="0.1">
<path opacity="0.1" d="M527.783 490.44V515.317V523.611V634.178V642.471V665.966H494.6H483.54V642.471V634.178V523.611V515.317V490.44H494.6H527.783Z" fill="url(#paint5_linear)"/>
</g>
</g>
<path d="M123.279 632.467H67.6836C60.1202 632.467 53.9888 638.596 53.9888 646.157V654.077C53.9888 661.638 60.1202 667.767 67.6836 667.767H123.279C130.842 667.767 136.973 661.638 136.973 654.077V646.157C136.973 638.596 130.842 632.467 123.279 632.467Z" fill="#0B6198"/>
<g opacity="0.7">
<g opacity="0.1">
<path opacity="0.1" d="M153.258 491.781V516.659V524.952V635.519V643.813V667.307H186.441H197.501V643.813V635.519V524.952V516.659V491.781H186.441H153.258Z" fill="url(#paint6_linear)"/>
</g>
<g opacity="0.1">
<path opacity="0.1" d="M200.267 491.781V516.659V524.952V635.519V643.813V667.307H233.448H244.509V643.813V635.519V524.952V516.659V491.781H233.448H200.267Z" fill="url(#paint7_linear)"/>
</g>
<g opacity="0.1">
<path opacity="0.1" d="M332.75 655.881L296.051 518.333L293.914 510.321L287.5 486.283L244.751 497.68L251.165 521.718L252.868 528.099L281.807 636.564L283.944 644.576L290.001 667.278L332.75 655.881Z" fill="url(#paint8_linear)"/>
</g>
</g>
<path d="M200.193 496.003H157.089V663.571H200.193V496.003Z" fill="#737481"/>
<path d="M200.193 507.493H157.089V516.111H200.193V507.493Z" fill="#0B6198"/>
<path d="M200.193 641.548H157.089V649.208H200.193V641.548Z" fill="#0B6198"/>
<path opacity="0.1" d="M200.193 496.003H189.657V663.571H200.193V496.003Z" fill="black"/>
<path d="M244.255 496.003H202.109V663.571H244.255V496.003Z" fill="#737481"/>
<path d="M244.255 507.493H202.109V516.111H244.255V507.493Z" fill="#0B6198"/>
<path d="M244.255 641.548H202.109V649.208H244.255V641.548Z" fill="#0B6198"/>
<path opacity="0.1" d="M244.255 496.003H233.718V663.571H244.255V496.003Z" fill="black"/>
<path d="M285.255 490.85L244.664 501.672L287.63 662.713L328.221 651.89L285.255 490.85Z" fill="#737481"/>
<path d="M288.661 502.944L248.07 513.766L250.1 521.374L290.691 510.552L288.661 502.944Z" fill="#0B6198"/>
<path d="M323.123 633.456L282.532 644.279L284.562 651.887L325.153 641.064L323.123 633.456Z" fill="#0B6198"/>
<path opacity="0.1" d="M285.255 490.85L275.107 493.555L318.073 654.596L328.221 651.89L285.255 490.85Z" fill="black"/>
<path d="M526.897 663.571H569.043V496.003H526.897V663.571Z" fill="#737481"/>
<path d="M526.897 516.111H569.043V507.493H526.897V516.111Z" fill="#0B6198"/>
<path d="M526.897 651.123H569.043V643.463H526.897V651.123Z" fill="#0B6198"/>
<path opacity="0.1" d="M526.897 663.571H537.434V496.003H526.897V663.571Z" fill="black"/>
<path d="M481.878 663.571H524.982V496.003H481.878V663.571Z" fill="#737481"/>
<path d="M481.878 514.196H524.982V506.536H481.878V514.196Z" fill="#0B6198"/>
<path d="M481.878 653.038H524.982V645.378H481.878V653.038Z" fill="#0B6198"/>
<path opacity="0.1" d="M481.878 663.571H492.414V496.003H481.878V663.571Z" fill="black"/>
<path d="M594.176 607.232H702.905C702.905 607.232 724.355 634.59 691.071 675.257H605.271C605.271 675.257 574.206 647.16 594.176 607.232Z" fill="#0B6198"/>
<g opacity="0.1">
<path opacity="0.1" d="M702.905 607.232H594.176C593.929 607.728 593.695 608.22 593.463 608.711H699.207C699.207 608.711 720.13 635.408 688.558 675.257H691.071C724.355 634.59 702.905 607.232 702.905 607.232Z" fill="black"/>
</g>
<path d="M754 662.997H0V688.547H754V662.997Z" fill="#E0E0E0"/>
<path d="M722.051 688.547H31.9492V699H722.051V688.547Z" fill="#E0E0E0"/>
<path opacity="0.1" d="M722.051 688.547H31.9492V692.032H722.051V688.547Z" fill="black"/>
<g clip-path="url(#clip0)">
<path d="M99.1388 134.055C131.144 134.055 157.089 108.118 157.089 76.124C157.089 44.1297 131.144 18.1931 99.1388 18.1931C67.1335 18.1931 41.1881 44.1297 41.1881 76.124C41.1881 108.118 67.1335 134.055 99.1388 134.055Z" fill="#5E3C16"/>
<path d="M156.913 71.5866L133.463 48.1447H122.774V58.0321L128.252 63.5082H122.774V72.4675L98.4427 48.1447H86.5356L64.8141 103.894L94.8253 133.895C96.2496 134 97.6877 134.055 99.1388 134.055C131.144 134.055 157.089 108.118 157.089 76.124C157.089 74.5967 157.029 73.084 156.913 71.5866Z" fill="#472E11"/>
<path d="M120.773 103.894H108.524L103.654 91.2308H81.3622L76.7592 103.894H64.8141L86.5356 48.1447H98.4424L120.773 103.894ZM100.04 81.8376L92.356 61.1502L84.8238 81.8376H100.04Z" fill="#DF871E"/>
<path d="M122.774 58.0321V48.1447H133.463V58.0321H122.774ZM122.774 103.894V63.5082H133.463V103.894H122.774V103.894Z" fill="#DF871E"/>
</g>
<g clip-path="url(#clip1)">
<path d="M238.993 408.867C255.116 408.867 268.202 395.783 268.202 379.662V350.458H238.993C222.869 350.458 209.784 363.541 209.784 379.662C209.784 395.783 222.869 408.867 238.993 408.867Z" fill="#0ACF83"/>
<path d="M209.784 321.253C209.784 305.132 222.869 292.048 238.993 292.048H268.202V350.458H238.993C222.869 350.458 209.784 337.374 209.784 321.253Z" fill="#A259FF"/>
<path d="M209.784 262.843C209.784 246.722 222.87 233.638 238.993 233.638H268.202V292.048H238.993C222.87 292.048 209.784 278.964 209.784 262.843Z" fill="#F24E1E"/>
<path d="M268.202 233.638H297.41C313.534 233.638 326.619 246.722 326.619 262.843C326.619 278.964 313.534 292.048 297.41 292.048H268.202V233.638Z" fill="#FF7262"/>
<path d="M326.619 321.253C326.619 337.374 313.534 350.458 297.41 350.458C281.287 350.458 268.202 337.374 268.202 321.253C268.202 305.132 281.287 292.048 297.41 292.048C313.534 292.048 326.619 305.132 326.619 321.253Z" fill="#1ABCFE"/>
</g>
<g clip-path="url(#clip2)">
<path d="M267.722 134.053C299.727 134.053 325.672 108.117 325.672 76.1232C325.672 44.1293 299.727 18.1931 267.722 18.1931C235.717 18.1931 209.772 44.1293 209.772 76.1232C209.772 108.117 235.717 134.053 267.722 134.053Z" fill="#592B49"/>
<path d="M325.547 72.3459L305.636 52.4417H296.701V69.2258C293.945 66.0896 290.68 64.5214 286.907 64.5214C285.918 64.5214 284.971 64.6099 284.064 64.7819L271.72 52.4417H260.813L253.79 63.9224L242.306 52.4417H231.303L245.74 74.7254L229.809 99.0431L264.758 133.98C265.74 134.029 266.728 134.055 267.723 134.055C299.728 134.055 325.673 108.118 325.673 76.1241C325.673 74.8541 325.628 73.5953 325.547 72.3459Z" fill="#291221"/>
<path d="M229.809 99.0432L245.74 74.7254L231.304 52.4417H242.306L251.655 67.4137L260.813 52.4417H271.72L257.22 75.0748L273.151 99.0429H261.799L251.464 82.9262L241.097 99.0429L229.809 99.0432Z" fill="#DA2286"/>
<path d="M305.636 99.0432H297.337V94.0842C295.958 96.0127 294.332 97.4485 292.456 98.3912C290.579 99.3339 288.687 99.806 286.78 99.806C282.9 99.806 279.577 98.2434 276.811 95.1172C274.044 91.9914 272.661 87.6313 272.661 82.0366C272.661 76.3146 274.007 71.9653 276.699 68.9877C279.391 66.0107 282.794 64.5214 286.907 64.5214C290.68 64.5214 293.945 66.0901 296.701 69.2258V52.4417H305.636V99.0432H305.636ZM281.787 81.4324C281.787 85.0355 282.285 87.6421 283.282 89.2522C284.723 91.5839 286.737 92.7491 289.323 92.7491C291.379 92.7491 293.128 91.8749 294.57 90.1266C296.011 88.3782 296.733 85.7666 296.733 82.2908C296.733 78.4126 296.033 75.6208 294.634 73.9146C293.235 72.209 291.443 71.3557 289.26 71.3557C287.14 71.3557 285.365 72.1982 283.934 73.8829C282.503 75.5676 281.787 78.0845 281.787 81.4324Z" fill="#DA2286"/>
</g>
<g clip-path="url(#clip3)">
<path d="M540.234 157.036C571.975 157.036 597.706 131.313 597.706 99.5836C597.706 67.8537 571.975 42.1315 540.234 42.1315C508.494 42.1315 482.763 67.8537 482.763 99.5836C482.763 131.313 508.494 157.036 540.234 157.036Z" fill="#C6C5CA"/>
<path d="M553.284 69.2942C542.643 69.2942 533.285 74.7784 527.879 83.0728C525.648 82.3859 523.279 82.0154 520.823 82.0154C507.603 82.0154 496.886 92.7288 496.886 105.944C496.886 112.459 499.491 118.364 503.715 122.679L503.713 122.681L538.033 156.99C538.764 157.017 539.497 157.036 540.235 157.036C571.457 157.036 596.863 132.147 597.685 101.134L574.744 78.2011L574.744 78.2015C569.258 72.6994 561.669 69.2942 553.284 69.2942Z" fill="#8A8A91"/>
<path d="M553.283 129.874C570.018 129.874 583.584 116.313 583.584 99.5836C583.584 82.8546 570.018 69.2931 553.283 69.2931C536.548 69.2931 522.982 82.8546 522.982 99.5836C522.982 116.313 536.548 129.874 553.283 129.874Z" fill="#BF2717"/>
<path d="M553.284 124.007C539.812 124.007 528.852 113.051 528.852 99.5836C528.852 86.1164 539.812 75.1602 553.284 75.1602C566.755 75.1602 577.715 86.1167 577.715 99.5836C577.715 113.05 566.755 124.007 553.284 124.007ZM553.284 79.136C542.005 79.136 532.829 88.3088 532.829 99.5836C532.829 110.858 542.005 120.031 553.284 120.031C564.562 120.031 573.738 110.858 573.738 99.5836C573.738 88.3088 564.562 79.136 553.284 79.136Z" fill="white"/>
<path d="M520.822 129.874C534.042 129.874 544.759 119.161 544.759 105.945C544.759 92.7297 534.042 82.0164 520.822 82.0164C507.602 82.0164 496.885 92.7297 496.885 105.945C496.885 119.161 507.602 129.874 520.822 129.874Z" fill="#BF2717"/>
<path d="M520.823 124.44C510.621 124.44 502.321 116.143 502.321 105.944C502.321 95.7455 510.621 87.4482 520.823 87.4482C525.765 87.4482 530.411 89.3721 533.906 92.8659C536.9 95.8597 542.656 102.317 542.9 102.591L539.929 105.235C539.87 105.169 534.007 98.5894 531.094 95.677C528.35 92.9344 524.703 91.424 520.823 91.424C512.813 91.424 506.298 97.9376 506.298 105.944C506.298 113.951 512.813 120.464 520.823 120.464C526.154 120.464 531.048 117.552 533.596 112.864L537.091 114.762C533.847 120.732 527.613 124.44 520.823 124.44Z" fill="white"/>
<path d="M537.441 115.482L532.046 112.305L527.491 115.482C529.984 119.517 533.399 122.922 537.44 125.406L537.441 115.482Z" fill="#BF2717"/>
<path d="M553.284 124.007C545.992 124.007 539.136 120.786 534.474 115.171C534.005 114.605 526.505 106.01 523.655 102.746L526.651 100.132C527.071 100.613 536.937 111.913 537.534 112.632C541.438 117.335 547.178 120.031 553.284 120.031C564.562 120.031 573.738 110.859 573.738 99.5838H577.715C577.715 113.05 566.755 124.007 553.284 124.007Z" fill="white"/>
</g>
<path d="M518.947 538.685L510.29 537.209C508.96 537.009 507.899 536.435 507.108 535.486C506.323 534.537 505.942 533.391 505.966 532.049C505.983 531.212 506.171 530.482 506.528 529.861C506.891 529.246 507.398 528.792 508.049 528.499C508.705 528.206 509.449 528.109 510.281 528.209L518.947 529.685L518.947 531.311L510.272 529.843C509.376 529.744 508.67 529.896 508.154 530.3C507.644 530.705 507.378 531.317 507.354 532.137C507.319 533.028 507.559 533.778 508.075 534.387C508.596 535.003 509.326 535.389 510.263 535.547L518.947 537.024L518.947 538.685ZM506.15 540.847L506.15 539.204L518.947 541.427L518.947 543.071L506.15 540.847ZM505.052 543.844L505.052 542.403L518.947 549.997L518.947 551.429L505.052 543.844ZM518.947 562.222L510.29 560.746C508.96 560.546 507.899 559.972 507.108 559.023C506.323 558.074 505.942 556.928 505.966 555.587C505.983 554.749 506.171 554.019 506.528 553.398C506.891 552.783 507.398 552.329 508.049 552.036C508.705 551.743 509.449 551.646 510.281 551.746L518.947 553.222L518.947 554.848L510.272 553.38C509.376 553.281 508.67 553.433 508.154 553.837C507.644 554.242 507.378 554.854 507.354 555.674C507.319 556.565 507.559 557.315 508.075 557.924C508.596 558.54 509.326 558.926 510.263 559.085L518.947 560.561L518.947 562.222ZM514.052 567.953L518.947 571.688L518.947 573.727L512.522 568.744L506.15 571.723L506.15 569.869L511.134 567.601L506.15 563.752L506.15 561.712L512.68 566.801L518.947 563.901L518.947 565.729L514.052 567.953ZM506.15 578.069L518.947 580.293L518.938 583.615C518.938 584.658 518.678 585.554 518.156 586.304C517.635 587.06 516.914 587.602 515.994 587.93C515.08 588.258 514.055 588.355 512.918 588.22L512.276 588.132C510.413 587.875 508.925 587.151 507.811 585.962C506.704 584.772 506.15 583.278 506.15 581.479L506.15 578.069ZM517.558 581.699L507.53 579.959L507.521 581.585C507.521 582.827 507.908 583.879 508.681 584.74C509.455 585.607 510.515 586.17 511.863 586.427C512.941 586.632 513.858 586.703 514.614 586.638C515.522 586.55 516.231 586.249 516.741 585.733C517.257 585.217 517.526 584.526 517.55 583.659L517.558 581.699ZM505.974 593.485C505.998 592.301 506.434 591.376 507.284 590.708C508.134 590.04 509.221 589.758 510.545 589.864L510.923 589.908C511.866 590.007 512.727 590.286 513.507 590.743C514.286 591.206 514.872 591.768 515.264 592.43C515.663 593.092 515.853 593.807 515.836 594.575C515.812 595.553 515.487 596.321 514.86 596.878C514.233 597.434 513.384 597.739 512.311 597.792C511.93 597.809 511.55 597.797 511.169 597.756L510.439 597.66L510.439 591.446C509.578 591.34 508.846 591.481 508.242 591.868C507.638 592.26 507.325 592.843 507.302 593.617C507.278 594.554 507.7 595.421 508.567 596.218L507.794 597.132C507.22 596.734 506.768 596.218 506.44 595.586C506.118 594.959 505.963 594.258 505.974 593.485ZM514.509 594.496C514.526 593.839 514.304 593.265 513.841 592.773C513.378 592.287 512.689 591.9 511.775 591.613L511.766 596.236L511.907 596.271C512.645 596.365 513.258 596.245 513.744 595.911C514.236 595.583 514.491 595.111 514.509 594.496ZM508.725 604.594C509.382 604.682 509.845 604.322 510.114 603.513L510.597 601.861C511.078 600.466 511.875 599.793 512.988 599.839C513.826 599.88 514.512 600.261 515.045 600.982C515.584 601.709 515.847 602.561 515.836 603.54C515.824 604.501 515.543 605.28 514.992 605.878C514.447 606.481 513.735 606.771 512.856 606.748L512.865 605.166C513.34 605.177 513.726 605.028 514.025 604.717C514.324 604.407 514.479 603.994 514.491 603.478C514.503 602.927 514.368 602.453 514.087 602.054C513.823 601.685 513.477 601.471 513.05 601.413C512.499 601.337 512.097 601.673 511.846 602.423L511.626 603.223C511.345 604.313 510.978 605.087 510.527 605.544C510.076 606.001 509.516 606.212 508.848 606.176C508.257 606.141 507.741 605.948 507.302 605.596C506.862 605.245 506.525 604.776 506.291 604.19C506.062 603.604 505.957 602.98 505.974 602.318C505.986 601.31 506.279 600.478 506.853 599.822C507.433 599.166 508.178 598.849 509.086 598.873L509.077 600.463C508.544 600.463 508.116 600.633 507.794 600.973C507.471 601.313 507.31 601.779 507.31 602.371C507.299 602.951 507.419 603.452 507.671 603.874C507.929 604.296 508.28 604.536 508.725 604.594ZM506.15 609.516L506.15 607.934L515.66 609.587L515.66 611.169L506.15 609.516ZM519.132 610.826C519.143 611.095 519.061 611.318 518.886 611.494C518.716 611.675 518.49 611.766 518.209 611.766C517.933 611.76 517.708 611.67 517.532 611.494C517.356 611.324 517.263 611.101 517.251 610.826C517.239 610.55 517.318 610.325 517.488 610.149C517.658 609.973 517.881 609.888 518.156 609.894C518.431 609.9 518.66 609.988 518.842 610.158C519.023 610.328 519.12 610.55 519.132 610.826ZM510.923 612.584C511.96 612.724 512.859 613.003 513.621 613.419C514.388 613.84 514.954 614.35 515.317 614.948C515.686 615.551 515.862 616.211 515.845 616.925C515.821 618.027 515.405 618.859 514.596 619.421L515.66 619.738L515.66 621.197L506.352 619.615C505.139 619.445 504.17 618.953 503.443 618.138C502.711 617.324 502.362 616.319 502.397 615.124C502.409 614.479 502.561 613.861 502.854 613.269C503.147 612.683 503.549 612.22 504.058 611.88L505.034 612.786C504.184 613.36 503.748 614.119 503.724 615.062C503.701 615.818 503.912 616.457 504.357 616.978C504.803 617.505 505.435 617.854 506.256 618.024L507.099 618.2C506.326 617.426 505.951 616.521 505.974 615.484C505.992 614.892 506.15 614.377 506.449 613.937C506.754 613.504 507.19 613.167 507.759 612.926C508.333 612.686 508.971 612.554 509.675 612.531C510.02 612.519 510.436 612.537 510.923 612.584ZM510.017 614.122C509.18 614.104 508.529 614.248 508.066 614.552C507.609 614.863 507.369 615.329 507.346 615.95C507.322 616.899 507.788 617.716 508.743 618.402L513.111 619.149C513.978 618.797 514.43 618.162 514.465 617.242C514.488 616.38 514.137 615.671 513.41 615.115C512.683 614.564 511.702 614.239 510.466 614.139L510.017 614.122ZM515.669 625.17L514.465 624.941C515.402 625.796 515.859 626.769 515.836 627.859C515.812 628.755 515.502 629.418 514.904 629.845C514.306 630.273 513.466 630.431 512.382 630.32L506.15 629.283L506.15 627.692L512.408 628.738C512.695 628.773 512.962 628.776 513.208 628.747C514.028 628.647 514.447 628.164 514.465 627.296C514.482 626.341 513.972 625.504 512.935 624.783L506.15 623.605L506.15 622.014L515.66 623.667L515.669 625.17ZM488.15 569.772L488.15 568.172L498.943 570.053L497.748 566.652L499.295 566.924L501.009 571.671L501.009 571.952L488.15 569.772ZM487.974 578.508C487.998 577.43 488.379 576.622 489.117 576.083C489.861 575.544 490.93 575.297 492.325 575.344C492.759 575.356 493.186 575.388 493.608 575.441L495.744 575.757C497.566 576.039 498.926 576.575 499.822 577.366C500.719 578.157 501.152 579.2 501.123 580.495C501.099 581.585 500.724 582.396 499.998 582.929C499.277 583.468 498.228 583.717 496.851 583.676C496.412 583.659 495.981 583.624 495.559 583.571L493.494 583.263C491.566 582.953 490.157 582.405 489.266 581.62C488.376 580.835 487.945 579.797 487.974 578.508ZM495.849 582.033C496.558 582.115 497.109 582.153 497.502 582.147C498.99 582.118 499.755 581.541 499.796 580.416C499.825 579.595 499.52 578.93 498.882 578.421C498.249 577.917 497.253 577.565 495.893 577.366L493.345 576.988C492.665 576.906 492.111 576.868 491.683 576.874C490.131 576.903 489.334 577.477 489.293 578.596C489.258 579.376 489.545 580.017 490.154 580.521C490.763 581.031 491.73 581.394 493.055 581.611L495.849 582.033ZM488.15 589.565L488.15 587.965L498.943 589.846L497.748 586.445L499.295 586.717L501.009 591.463L501.009 591.745L488.15 589.565Z" fill="white"/>
<path d="M555.366 528.532C555.352 528.101 555.27 527.722 555.12 527.393C554.976 527.072 554.747 526.795 554.433 526.563C553.742 526.057 552.604 525.804 551.018 525.804C550.567 525.804 550.218 525.855 549.972 525.958C549.883 525.985 549.805 526.019 549.736 526.06C549.688 526.088 549.641 526.101 549.593 526.101C549.593 525.35 549.743 524.792 550.044 524.43C550.372 524.04 550.902 523.846 551.633 523.846C552.358 523.846 553.045 523.979 553.694 524.246C554.344 524.519 554.914 524.933 555.407 525.486C555.94 526.081 556.353 526.836 556.647 527.752C556.941 528.675 557.088 529.762 557.088 531.013C557.088 531.252 557.075 531.492 557.047 531.731L556.996 532.264C556.928 532.9 556.887 533.313 556.873 533.505C556.846 533.799 556.832 534.13 556.832 534.499C556.832 535.245 556.917 535.873 557.088 536.386C556.911 536.325 556.675 536.26 556.381 536.191C555.793 536.041 555.328 535.761 554.986 535.35C554.788 535.111 554.648 534.793 554.566 534.397C554.566 533.549 554.699 532.568 554.966 531.454L550.792 530.572L550.792 533.638L549.234 533.3L549.234 530.234L541.338 528.532L541.338 525.507L555.366 528.532ZM552.977 536.807C552.977 536.581 553.018 536.366 553.1 536.161C553.188 535.955 553.308 535.778 553.458 535.627C553.602 535.477 553.776 535.357 553.981 535.268C554.186 535.186 554.402 535.145 554.627 535.145C554.853 535.145 555.068 535.186 555.273 535.268C555.478 535.357 555.66 535.477 555.817 535.627C555.974 535.778 556.094 535.955 556.176 536.161C556.265 536.366 556.309 536.581 556.309 536.807C556.309 537.032 556.265 537.247 556.176 537.453C556.094 537.658 555.974 537.839 555.817 537.996C555.66 538.153 555.478 538.273 555.273 538.355C555.068 538.444 554.853 538.488 554.627 538.488C554.402 538.488 554.186 538.444 553.981 538.355C553.776 538.273 553.602 538.153 553.458 537.996C553.308 537.839 553.188 537.658 553.1 537.453C553.018 537.247 552.977 537.032 552.977 536.807ZM541.215 535.381C541.215 534.711 541.414 534.182 541.81 533.792C542.247 533.354 542.887 533.136 543.727 533.136C544.124 533.136 544.582 533.19 545.102 533.3L551.838 534.725L551.838 537.75L544.702 536.243C544.524 536.188 544.298 536.161 544.025 536.161C543.738 536.161 543.536 536.225 543.42 536.355C543.304 536.492 543.246 536.711 543.246 537.012C543.246 537.217 543.29 537.415 543.379 537.606C543.475 537.805 543.604 537.986 543.768 538.15C544.103 538.485 544.548 538.738 545.102 538.909L545.102 539.79C544.042 539.414 543.198 538.943 542.569 538.375C542.056 537.897 541.687 537.357 541.461 536.755C541.297 536.318 541.215 535.86 541.215 535.381ZM536.088 542.631C536.088 542.303 536.133 541.995 536.222 541.708C536.304 541.428 536.43 541.185 536.601 540.98C536.772 540.761 536.987 540.59 537.247 540.467C537.5 540.344 537.794 540.283 538.129 540.283C538.922 540.283 539.602 540.655 540.169 541.4C540.586 541.961 540.949 542.73 541.256 543.707L542.364 543.964C541.598 543.246 541.215 542.405 541.215 541.441C541.215 540.642 541.465 539.996 541.964 539.503C542.552 538.929 543.427 538.642 544.589 538.642C545.081 538.642 545.601 538.693 546.147 538.796C546.694 538.892 547.234 539.035 547.768 539.226C548.971 539.664 549.941 540.262 550.68 541.021C551.52 541.896 551.941 542.904 551.941 544.046C551.941 544.613 551.842 545.037 551.643 545.317C551.452 545.604 551.196 545.748 550.874 545.748L550.751 545.748L551.838 545.974L551.838 548.998L542.097 546.917C542.316 547.58 542.644 548.11 543.081 548.506C543.553 548.937 544.227 549.289 545.102 549.562L545.102 550.444C543.857 550.068 542.897 549.508 542.22 548.763C541.728 548.216 541.379 547.539 541.174 546.732L539.657 546.414C538.317 546.148 537.346 545.615 536.745 544.815C536.307 544.234 536.088 543.506 536.088 542.631ZM543.246 542.805C543.246 543.106 543.386 543.424 543.666 543.759C543.98 544.121 544.387 544.364 544.886 544.487L549.859 545.553C549.928 545.553 550.006 545.536 550.095 545.502C550.184 545.475 550.266 545.434 550.341 545.379C550.539 545.215 550.639 544.986 550.639 544.692C550.639 544.412 550.546 544.138 550.362 543.871C550.177 543.612 549.921 543.366 549.593 543.133C548.998 542.723 548.222 542.385 547.265 542.118C546.841 541.995 546.421 541.903 546.004 541.841C545.594 541.78 545.221 541.749 544.886 541.749C544.189 541.749 543.717 541.879 543.471 542.139C543.375 542.227 543.314 542.327 543.287 542.436C543.259 542.545 543.246 542.668 543.246 542.805ZM537.729 542.149C537.729 542.368 537.883 542.593 538.19 542.826C538.491 543.058 538.959 543.239 539.595 543.369L540.2 543.492C539.961 542.856 539.718 542.381 539.472 542.067C539.158 541.65 538.806 541.441 538.416 541.441C538.231 541.441 538.078 541.499 537.955 541.616C537.804 541.746 537.729 541.923 537.729 542.149ZM541.215 562.329C541.215 561.46 541.461 560.818 541.954 560.401C542.377 560.038 542.921 559.857 543.584 559.857C543.898 559.857 544.264 559.895 544.681 559.97C545.098 560.052 545.635 560.172 546.291 560.329C546.961 560.486 547.494 560.602 547.891 560.678C548.294 560.76 548.643 560.801 548.936 560.801C549.654 560.801 550.013 560.548 550.013 560.042C550.013 559.686 549.825 559.358 549.449 559.058C549.128 558.805 548.67 558.586 548.075 558.401L541.338 556.976L541.338 553.951L548.588 555.489C548.752 555.53 548.926 555.551 549.111 555.551C549.391 555.551 549.606 555.506 549.757 555.417C549.941 555.301 550.034 555.134 550.034 554.915C550.034 554.518 549.842 554.173 549.459 553.879C549.131 553.62 548.67 553.397 548.075 553.213L541.338 551.788L541.338 548.763L551.838 550.988L551.838 554.013L550.751 553.787C551.209 554.197 551.534 554.645 551.726 555.13C551.869 555.513 551.941 555.92 551.941 556.35C551.941 556.938 551.804 557.407 551.531 557.755C551.223 558.145 550.758 558.394 550.136 558.504C550.833 558.955 551.326 559.475 551.613 560.062C551.818 560.479 551.92 560.934 551.92 561.426C551.92 562.13 551.736 562.687 551.367 563.098C550.963 563.535 550.358 563.754 549.552 563.754C549.094 563.754 548.461 563.668 547.655 563.497C547.32 563.429 546.981 563.347 546.64 563.251C545.983 563.08 545.378 562.94 544.825 562.831C544.538 562.776 544.305 562.749 544.127 562.749C543.847 562.749 543.628 562.81 543.471 562.934C543.321 563.063 543.246 563.282 543.246 563.59C543.246 564.007 543.416 564.359 543.758 564.646C544.018 564.865 544.466 565.1 545.101 565.353L545.101 566.235C543.563 565.716 542.487 565.059 541.872 564.267C541.434 563.706 541.215 563.06 541.215 562.329ZM541.215 567.876C541.215 567.076 541.465 566.43 541.964 565.938C542.552 565.364 543.427 565.077 544.589 565.077C545.081 565.077 545.601 565.128 546.147 565.23C546.694 565.326 547.234 565.47 547.768 565.661C548.971 566.099 549.941 566.697 550.68 567.455C551.52 568.33 551.941 569.339 551.941 570.48C551.941 571.048 551.842 571.472 551.643 571.752C551.452 572.039 551.196 572.183 550.874 572.183L550.721 572.183L551.838 572.408L551.838 575.433L544.702 573.926C544.497 573.864 544.271 573.833 544.025 573.833C543.423 573.833 543.122 574.121 543.122 574.695C543.122 575.078 543.317 575.426 543.707 575.741C544.035 576.007 544.5 576.226 545.101 576.397L545.101 577.279C544.035 576.903 543.191 576.448 542.569 575.915C542.056 575.464 541.687 574.954 541.461 574.387C541.297 573.97 541.215 573.529 541.215 573.064C541.215 572.47 541.376 571.995 541.697 571.639C542.025 571.29 542.507 571.079 543.143 571.003C542.582 570.607 542.145 570.19 541.831 569.752C541.42 569.192 541.215 568.566 541.215 567.876ZM543.246 569.24C543.246 569.397 543.287 569.561 543.369 569.732C543.451 569.91 543.567 570.08 543.717 570.245C544.073 570.614 544.534 570.86 545.101 570.983L549.839 571.988C549.907 571.988 549.986 571.971 550.075 571.936C550.17 571.909 550.259 571.868 550.341 571.813C550.539 571.649 550.639 571.42 550.639 571.126C550.639 570.846 550.546 570.573 550.362 570.306C550.177 570.046 549.921 569.8 549.593 569.568C548.998 569.158 548.222 568.819 547.265 568.553C546.841 568.43 546.421 568.337 546.004 568.276C545.594 568.214 545.221 568.184 544.886 568.184C544.189 568.184 543.717 568.313 543.471 568.573C543.375 568.662 543.314 568.761 543.287 568.871C543.259 568.98 543.246 569.103 543.246 569.24ZM541.061 588.691C541.061 587.844 541.434 586.989 542.179 586.128L541.338 585.954L541.338 582.939L554.699 585.789L555.109 588.896L543.338 586.374C543.058 586.757 542.917 587.157 542.917 587.574C542.917 587.977 543.044 588.36 543.297 588.722C543.55 589.091 543.909 589.43 544.373 589.737C545.228 590.305 546.397 590.766 547.88 591.121C549.268 591.443 550.693 591.603 552.156 591.603C553.523 591.603 554.542 591.323 555.212 590.763C555.82 590.243 556.124 589.501 556.124 588.538C556.124 587.758 556.008 587.034 555.776 586.364C555.543 585.694 555.208 585.113 554.771 584.621C554.32 584.115 553.776 583.725 553.141 583.452C552.505 583.178 551.797 583.041 551.018 583.041C550.581 583.041 550.232 583.089 549.972 583.185C549.883 583.212 549.805 583.246 549.736 583.288C549.688 583.315 549.641 583.329 549.593 583.329C549.593 582.597 549.743 582.04 550.044 581.657C550.351 581.274 550.851 581.083 551.541 581.083C552.013 581.083 552.477 581.175 552.935 581.36C553.4 581.544 553.841 581.811 554.258 582.16C554.668 582.501 555.044 582.912 555.386 583.39C555.735 583.875 556.036 584.405 556.289 584.979C556.822 586.196 557.088 587.502 557.088 588.896C557.088 590.188 556.805 591.275 556.237 592.157C555.711 592.964 554.979 593.565 554.043 593.962C553.154 594.324 552.153 594.505 551.039 594.505C550.252 594.505 549.456 594.434 548.649 594.29C547.843 594.153 547.063 593.955 546.311 593.695C545.573 593.435 544.883 593.124 544.24 592.762C543.604 592.407 543.051 592.014 542.579 591.583C542.094 591.139 541.718 590.67 541.451 590.178C541.191 589.693 541.061 589.197 541.061 588.691ZM541.215 597.889C541.215 596.857 541.475 596.06 541.995 595.5C542.548 594.905 543.399 594.608 544.548 594.608C544.978 594.608 545.457 594.652 545.983 594.741C546.51 594.823 547.036 594.95 547.562 595.121C548.15 595.312 548.707 595.555 549.234 595.849C549.76 596.149 550.225 596.498 550.628 596.894C551.558 597.81 552.023 598.938 552.023 600.278C552.023 601.133 551.818 601.755 551.408 602.144C551.086 602.445 550.622 602.596 550.013 602.596C549.418 602.596 548.858 602.466 548.331 602.206C547.812 601.946 547.351 601.587 546.947 601.129C546.551 600.671 546.233 600.152 545.994 599.571C545.761 598.99 545.624 598.388 545.583 597.766C545.228 597.732 544.948 597.715 544.743 597.715C544.059 597.715 543.587 597.845 543.328 598.104C543.095 598.33 542.979 598.706 542.979 599.232C542.979 599.991 543.184 600.685 543.594 601.314C543.765 601.58 543.967 601.837 544.199 602.083C544.438 602.329 544.739 602.616 545.101 602.944L545.101 603.662C543.98 602.999 543.088 602.237 542.425 601.375C541.619 600.316 541.215 599.154 541.215 597.889ZM546.588 597.93C546.616 598.32 546.728 598.699 546.927 599.068C547.125 599.437 547.385 599.766 547.706 600.053C548.034 600.34 548.4 600.565 548.803 600.729C549.213 600.893 549.63 600.975 550.054 600.975C550.334 600.975 550.546 600.934 550.69 600.852C550.84 600.777 550.915 600.644 550.915 600.453C550.915 600.2 550.792 599.943 550.546 599.684C550.3 599.431 549.962 599.184 549.531 598.945C549.128 598.726 548.67 598.528 548.157 598.35C547.644 598.173 547.122 598.033 546.588 597.93ZM541.215 605.333C541.215 604.828 541.29 604.38 541.441 603.99C541.598 603.6 541.813 603.272 542.087 603.006C542.34 602.76 542.62 602.575 542.928 602.452C543.242 602.329 543.567 602.267 543.902 602.267C544.36 602.267 544.773 602.384 545.143 602.616C545.471 602.821 545.706 603.078 545.85 603.385C546.821 603.932 547.805 604.407 548.803 604.81C549.801 605.214 550.892 605.6 552.074 605.969L552.484 609.076C550.707 609.158 549.343 609.233 548.393 609.302C547.415 609.37 546.698 609.428 546.24 609.476C545.706 609.517 545.242 609.538 544.845 609.538C544.49 609.538 544.223 609.51 544.045 609.455C544.414 610.084 544.767 610.587 545.101 610.963L545.101 611.845C544.52 611.346 544.021 610.829 543.604 610.296C543.187 609.77 542.811 609.216 542.476 608.635C542.039 608.218 541.714 607.695 541.502 607.066C541.311 606.519 541.215 605.942 541.215 605.333ZM542.876 604.667C542.876 605.193 543.02 605.614 543.307 605.928C543.649 606.304 544.155 606.492 544.825 606.492C545.105 606.492 545.457 606.475 545.881 606.441L546.506 606.39C547.046 606.328 547.672 606.267 548.383 606.205L549.798 606.092C549.162 605.894 548.53 605.658 547.901 605.385C547.279 605.111 546.588 604.78 545.83 604.39C545.652 604.711 545.409 604.872 545.101 604.872C544.828 604.872 544.592 604.79 544.394 604.626C544.175 604.448 544.066 604.223 544.066 603.949C544.066 603.812 544.083 603.696 544.117 603.6C544.158 603.512 544.233 603.44 544.343 603.385C543.837 603.385 543.464 603.484 543.225 603.683C542.993 603.881 542.876 604.209 542.876 604.667ZM552.976 614.47C552.976 614.244 553.018 614.029 553.1 613.824C553.188 613.619 553.308 613.441 553.458 613.29C553.602 613.14 553.776 613.02 553.981 612.932C554.186 612.85 554.402 612.809 554.627 612.809C554.853 612.809 555.068 612.85 555.273 612.932C555.478 613.02 555.66 613.14 555.817 613.29C555.974 613.441 556.094 613.619 556.176 613.824C556.265 614.029 556.309 614.244 556.309 614.47C556.309 614.695 556.265 614.911 556.176 615.116C556.094 615.321 555.974 615.502 555.817 615.659C555.66 615.816 555.478 615.936 555.273 616.018C555.068 616.107 554.853 616.151 554.627 616.151C554.402 616.151 554.186 616.107 553.981 616.018C553.776 615.936 553.602 615.816 553.458 615.659C553.308 615.502 553.188 615.321 553.1 615.116C553.018 614.911 552.976 614.695 552.976 614.47ZM541.215 613.044C541.215 612.374 541.414 611.845 541.81 611.455C542.247 611.017 542.887 610.799 543.727 610.799C544.124 610.799 544.582 610.853 545.101 610.963L551.838 612.388L551.838 615.413L544.702 613.906C544.524 613.851 544.298 613.824 544.025 613.824C543.738 613.824 543.536 613.889 543.42 614.018C543.304 614.155 543.246 614.374 543.246 614.675C543.246 614.88 543.29 615.078 543.379 615.269C543.475 615.468 543.604 615.649 543.768 615.813C544.103 616.148 544.548 616.401 545.101 616.572L545.101 617.454C544.042 617.078 543.198 616.606 542.569 616.038C542.056 615.56 541.687 615.02 541.461 614.418C541.297 613.981 541.215 613.523 541.215 613.044ZM536.088 620.294C536.088 619.966 536.133 619.658 536.222 619.371C536.304 619.091 536.43 618.848 536.601 618.643C536.772 618.424 536.987 618.253 537.247 618.13C537.5 618.007 537.794 617.946 538.129 617.946C538.922 617.946 539.602 618.318 540.169 619.063C540.586 619.624 540.949 620.393 541.256 621.371L542.364 621.627C541.598 620.909 541.215 620.068 541.215 619.104C541.215 618.305 541.465 617.659 541.964 617.166C542.552 616.592 543.427 616.305 544.589 616.305C545.081 616.305 545.601 616.356 546.147 616.459C546.694 616.555 547.234 616.698 547.768 616.89C548.971 617.327 549.941 617.925 550.68 618.684C551.52 619.559 551.941 620.567 551.941 621.709C551.941 622.276 551.842 622.7 551.643 622.98C551.452 623.267 551.196 623.411 550.874 623.411L550.751 623.411L551.838 623.637L551.838 626.662L542.097 624.58C542.316 625.243 542.644 625.773 543.081 626.169C543.553 626.6 544.226 626.952 545.101 627.225L545.101 628.107C543.857 627.731 542.897 627.171 542.22 626.426C541.728 625.879 541.379 625.202 541.174 624.395L539.657 624.078C538.317 623.811 537.346 623.278 536.745 622.478C536.307 621.897 536.088 621.169 536.088 620.294ZM543.246 620.468C543.246 620.769 543.386 621.087 543.666 621.422C543.98 621.784 544.387 622.027 544.886 622.15L549.859 623.216C549.928 623.216 550.006 623.199 550.095 623.165C550.184 623.138 550.266 623.097 550.341 623.042C550.539 622.878 550.639 622.649 550.639 622.355C550.639 622.075 550.546 621.801 550.362 621.535C550.177 621.275 549.921 621.029 549.593 620.796C548.998 620.386 548.222 620.048 547.265 619.781C546.841 619.658 546.421 619.566 546.004 619.504C545.594 619.443 545.221 619.412 544.886 619.412C544.189 619.412 543.717 619.542 543.471 619.802C543.375 619.891 543.314 619.99 543.287 620.099C543.259 620.208 543.246 620.331 543.246 620.468ZM537.729 619.812C537.729 620.031 537.883 620.256 538.19 620.489C538.491 620.721 538.959 620.902 539.595 621.032L540.2 621.155C539.961 620.519 539.718 620.044 539.472 619.73C539.158 619.313 538.806 619.104 538.416 619.104C538.231 619.104 538.078 619.163 537.955 619.279C537.804 619.409 537.729 619.586 537.729 619.812ZM541.215 634.803C541.215 633.935 541.461 633.292 541.954 632.875C542.377 632.513 542.921 632.332 543.584 632.332C543.898 632.332 544.264 632.37 544.681 632.445C545.098 632.527 545.635 632.646 546.291 632.804C546.961 632.961 547.494 633.077 547.891 633.152C548.294 633.234 548.643 633.275 548.936 633.275C549.654 633.275 550.013 633.022 550.013 632.517C550.013 632.161 549.825 631.833 549.449 631.532C549.128 631.279 548.67 631.06 548.075 630.876L541.338 629.451L541.338 626.426L551.838 628.651L551.838 631.676L550.751 631.45C551.209 631.86 551.531 632.301 551.715 632.773C551.852 633.121 551.92 633.497 551.92 633.901C551.92 634.612 551.736 635.172 551.367 635.582C550.963 636.02 550.358 636.239 549.552 636.239C549.066 636.239 548.434 636.15 547.655 635.972C547.429 635.924 547.091 635.846 546.64 635.736C545.881 635.538 545.276 635.394 544.825 635.306C544.538 635.251 544.305 635.224 544.127 635.224C543.847 635.224 543.628 635.285 543.471 635.408C543.321 635.538 543.246 635.757 543.246 636.064C543.246 636.481 543.416 636.833 543.758 637.121C544.018 637.339 544.466 637.575 545.101 637.828L545.101 638.71C543.563 638.19 542.487 637.534 541.872 636.741C541.434 636.181 541.215 635.535 541.215 634.803Z" fill="white"/>
<path d="M271.871 532.772C270.991 532.905 270.154 532.816 269.361 532.507C268.574 532.196 267.898 531.698 267.332 531.012C266.772 530.325 266.379 529.527 266.153 528.617C265.952 527.797 265.948 527.037 266.142 526.336C266.342 525.633 266.735 525.016 267.32 524.483C267.912 523.954 268.646 523.548 269.523 523.265C270.208 523.039 271.093 522.877 272.178 522.781C273.263 522.69 274.271 522.772 275.201 523.027C276.132 523.287 276.92 523.68 277.564 524.205C278.466 524.946 279.064 525.908 279.357 527.091C279.677 528.376 279.552 529.495 278.983 530.449C278.42 531.406 277.467 532.104 276.123 532.543L275.467 530.062C276.248 529.853 276.778 529.544 277.057 529.136C277.335 528.727 277.398 528.192 277.245 527.529C277.045 526.673 276.555 526.055 275.774 525.676C274.995 525.302 273.972 525.185 272.705 525.324C271.473 525.46 270.566 525.618 269.984 525.798C269.244 526.027 268.737 526.341 268.462 526.743C268.193 527.142 268.124 527.619 268.254 528.172C268.429 528.938 268.77 529.496 269.276 529.846C269.789 530.2 270.428 530.353 271.192 530.306L271.871 532.772ZM276.555 539.215C276.524 538.872 276.48 538.595 276.424 538.386C276.218 537.525 275.716 536.934 274.921 536.614L268.626 537.163L267.984 534.769L277.598 533.904L278.209 536.151L277.029 536.231C278.05 536.576 278.674 537.173 278.902 538.022C278.965 538.26 279 538.548 279.006 538.886L276.555 539.215ZM270.613 545.256C270.403 544.451 270.407 543.685 270.625 542.96C270.851 542.238 271.259 541.634 271.851 541.148C272.448 540.661 273.163 540.342 273.996 540.192L274.343 540.126C275.26 539.971 276.15 540.012 277.014 540.248C277.878 540.483 278.603 540.89 279.188 541.467C279.779 542.043 280.175 542.749 280.375 543.587C280.67 544.776 280.473 545.787 279.787 546.62C279.107 547.457 278.1 547.976 276.764 548.176L275.684 548.32L274.175 542.691C273.575 542.828 273.138 543.1 272.865 543.506C272.592 543.913 272.521 544.387 272.654 544.928C272.865 545.805 273.407 546.479 274.279 546.949L273.214 548.408C272.601 548.202 272.06 547.813 271.591 547.241C271.128 546.668 270.802 546.006 270.613 545.256ZM278.365 543.998C278.258 543.554 278.014 543.198 277.633 542.93C277.253 542.668 276.67 542.496 275.884 542.415L276.767 545.709L277.002 545.701C277.237 545.674 277.453 545.62 277.649 545.537C277.962 545.392 278.18 545.185 278.302 544.916C278.429 544.645 278.451 544.339 278.365 543.998ZM273.504 555.364C273.717 555.228 273.986 555.123 274.311 555.048C273.436 554.542 272.892 553.85 272.681 552.973C272.477 552.166 272.559 551.429 272.925 550.76C273.299 550.096 273.867 549.68 274.629 549.512C275.642 549.283 276.521 549.497 277.267 550.152C278.02 550.812 278.577 551.815 278.938 553.162L279.221 554.287L279.805 554.258C280.001 554.242 280.181 554.203 280.347 554.141C280.605 554.041 280.784 553.884 280.885 553.669C280.992 553.458 281.01 553.211 280.94 552.926C280.851 552.55 280.673 552.258 280.405 552.05C280.143 551.842 279.818 551.75 279.43 551.775L278.778 549.374C279.666 549.179 280.484 549.391 281.232 550.009C281.987 550.632 282.51 551.508 282.801 552.637C283.057 553.685 282.964 554.583 282.522 555.332C282.086 556.08 281.385 556.532 280.42 556.687L275.833 557.16L275.278 557.263C274.873 557.36 274.547 557.499 274.298 557.681L274.135 557.715L273.504 555.364ZM274.7 553.069C274.862 553.766 275.324 554.288 276.085 554.636L277.752 554.508L277.537 553.674C277.278 552.797 276.838 552.232 276.219 551.98C275.994 551.888 275.741 551.862 275.461 551.901C275.143 551.937 274.916 552.065 274.78 552.283C274.652 552.506 274.625 552.768 274.7 553.069ZM287.274 560.975L284.909 561.18L285.318 562.709L283.434 562.877L283.025 561.348L278.214 561.8C277.916 561.843 277.702 561.925 277.57 562.045C277.438 562.165 277.408 562.38 277.479 562.688C277.497 562.781 277.577 563.02 277.717 563.407L275.795 563.74C275.54 563.353 275.352 562.912 275.231 562.417C275.031 561.627 275.121 560.976 275.499 560.462C275.877 559.948 276.485 559.615 277.324 559.463L282.383 558.954L282.035 557.656L283.919 557.488L284.267 558.786L286.63 558.572L287.274 560.975ZM276.758 567.504L276.112 565.093L285.726 564.228L286.372 566.639L276.758 567.504ZM288.136 563.883C288.512 563.77 288.859 563.81 289.178 564.004C289.497 564.198 289.706 564.478 289.804 564.846C289.913 565.205 289.886 565.549 289.726 565.877C289.565 566.205 289.302 566.424 288.937 566.534C288.589 566.64 288.252 566.603 287.925 566.423C287.599 566.25 287.378 565.966 287.26 565.573C287.153 565.22 287.177 564.877 287.33 564.544C287.485 564.218 287.754 563.997 288.136 563.883ZM281.371 572.592L288.227 573.558L288.918 576.139L278.542 574.159L277.928 571.867L286.693 567.836L287.344 570.264L281.371 572.592ZM280.58 582.44C280.37 581.634 280.374 580.869 280.592 580.143C280.817 579.422 281.226 578.818 281.817 578.332C282.414 577.844 283.13 577.525 283.963 577.375L284.309 577.31C285.226 577.155 286.117 577.195 286.981 577.431C287.845 577.667 288.569 578.073 289.155 578.65C289.746 579.226 290.142 579.933 290.342 580.771C290.636 581.96 290.44 582.971 289.754 583.804C289.074 584.641 288.067 585.159 286.731 585.359L285.65 585.503L284.142 579.875C283.541 580.011 283.105 580.283 282.831 580.69C282.558 581.097 282.488 581.57 282.621 582.111C282.832 582.989 283.373 583.663 284.246 584.133L283.181 585.592C282.568 585.386 282.027 584.997 281.558 584.425C281.095 583.851 280.769 583.19 280.58 582.44ZM288.332 581.182C288.225 580.737 287.981 580.381 287.6 580.113C287.22 579.851 286.637 579.68 285.851 579.599L286.734 582.893L286.968 582.885C287.204 582.858 287.42 582.803 287.616 582.72C287.929 582.576 288.147 582.369 288.269 582.1C288.396 581.829 288.417 581.523 288.332 581.182ZM290.066 600.653C289.186 600.786 288.349 600.698 287.556 600.388C286.769 600.077 286.093 599.579 285.527 598.894C284.967 598.207 284.574 597.408 284.348 596.498C284.146 595.678 284.143 594.918 284.337 594.217C284.537 593.514 284.93 592.897 285.515 592.364C286.107 591.835 286.841 591.429 287.718 591.146C288.403 590.92 289.288 590.759 290.373 590.662C291.458 590.572 292.466 590.654 293.396 590.908C294.327 591.168 295.115 591.561 295.759 592.086C296.661 592.827 297.259 593.789 297.552 594.972C297.872 596.257 297.747 597.376 297.178 598.33C296.615 599.287 295.662 599.985 294.318 600.424L293.662 597.943C294.443 597.734 294.973 597.425 295.251 597.017C295.53 596.608 295.593 596.073 295.44 595.41C295.24 594.554 294.75 593.936 293.969 593.557C293.19 593.183 292.166 593.066 290.9 593.205C289.668 593.341 288.761 593.499 288.179 593.679C287.439 593.908 286.932 594.223 286.657 594.624C286.388 595.023 286.319 595.5 286.449 596.053C286.624 596.819 286.965 597.377 287.471 597.727C287.984 598.081 288.623 598.234 289.387 598.187L290.066 600.653ZM286.857 605.18L286.211 602.769L299.859 601.542L300.503 603.945L286.857 605.18ZM298.167 609.966C298.373 610.778 298.35 611.53 298.099 612.223C297.855 612.919 297.413 613.498 296.772 613.961C296.139 614.428 295.379 614.738 294.492 614.89C292.997 615.151 291.677 614.959 290.533 614.313C289.397 613.671 288.665 612.696 288.339 611.388C288.137 610.587 288.155 609.842 288.395 609.153C288.641 608.463 289.08 607.884 289.713 607.417C290.346 606.95 291.101 606.642 291.977 606.492C293.533 606.233 294.877 606.425 296.008 607.069C297.139 607.712 297.858 608.678 298.167 609.966ZM291.737 609.095C291.197 609.252 290.801 609.494 290.549 609.823C290.303 610.149 290.234 610.535 290.341 610.98C290.515 611.721 291.007 612.208 291.815 612.441C292.629 612.672 293.601 612.621 294.731 612.288C295.269 612.119 295.666 611.87 295.923 611.541C296.188 611.215 296.266 610.827 296.157 610.377C295.989 609.658 295.499 609.176 294.687 608.933C293.883 608.693 292.9 608.747 291.737 609.095ZM292.459 622.277C291.513 621.803 290.913 621.059 290.66 620.047C290.435 619.162 290.573 618.409 291.074 617.789C291.575 617.17 292.349 616.774 293.395 616.603L299.604 616.005L300.246 618.399L294.007 618.987C293.814 619.015 293.638 619.059 293.478 619.12C292.927 619.328 292.72 619.72 292.856 620.296C293.032 621.044 293.483 621.581 294.207 621.909L301.026 621.311L301.672 623.722L292.059 624.586L291.46 622.354L292.459 622.277ZM303.123 628.42C303.329 629.28 303.172 630.062 302.651 630.766L307.595 630.406L308.239 632.809L294.594 634.043L294.02 631.904L295.041 631.776C294.06 631.305 293.458 630.611 293.237 629.694C293.089 629.121 293.105 628.58 293.284 628.071C293.463 627.562 293.795 627.115 294.28 626.73C294.773 626.349 295.356 626.057 296.029 625.852C296.381 625.74 296.728 625.656 297.071 625.6L297.467 625.549C298.443 625.433 299.339 625.472 300.155 625.666C300.973 625.865 301.63 626.199 302.125 626.667C302.622 627.14 302.955 627.725 303.123 628.42ZM297.715 628.003C297.273 628.073 296.907 628.156 296.617 628.251C295.636 628.575 295.237 629.112 295.421 629.864C295.573 630.545 296.047 631.046 296.843 631.367L300.668 631.042C301.215 630.659 301.413 630.133 301.264 629.463C301.125 628.876 300.768 628.45 300.194 628.185C299.626 627.925 298.8 627.864 297.715 628.003Z" fill="white"/>
<path d="M219.522 530.256L229.515 534.967L229.515 537.428L216.718 530.959L216.718 528.859L229.515 526.406L229.515 528.709L219.522 530.256ZM216.543 540.495C216.56 539.669 216.768 538.951 217.167 538.342C217.565 537.738 218.11 537.29 218.801 536.997C219.493 536.71 220.263 536.602 221.113 536.672L221.473 536.698C222.44 536.804 223.307 537.085 224.075 537.542C224.848 538.005 225.434 538.579 225.833 539.265C226.231 539.95 226.422 540.694 226.404 541.497C226.381 542.687 225.938 543.577 225.077 544.169C224.216 544.767 223.093 544.992 221.711 544.846L220.797 544.723L220.797 538.737C220.041 538.685 219.431 538.837 218.968 539.194C218.506 539.552 218.268 540.044 218.257 540.671C218.227 541.568 218.617 542.394 219.425 543.15L218.318 544.204C217.75 543.806 217.307 543.281 216.991 542.631C216.68 541.981 216.531 541.269 216.543 540.495ZM224.699 541.383C224.734 540.281 223.955 539.455 222.361 538.904L222.352 542.851L222.537 542.886C222.806 542.927 223.07 542.93 223.328 542.895C223.744 542.83 224.072 542.666 224.312 542.402C224.552 542.139 224.681 541.799 224.699 541.383ZM218.239 549.794C218.227 550.292 218.371 550.732 218.67 551.112C218.974 551.499 219.37 551.745 219.856 551.851L219.865 553.819C219.238 553.755 218.667 553.526 218.151 553.134C217.635 552.747 217.234 552.249 216.947 551.64C216.66 551.03 216.525 550.395 216.543 549.733C216.554 548.918 216.765 548.224 217.175 547.65C217.586 547.075 218.151 546.656 218.872 546.393C219.598 546.129 220.407 546.041 221.298 546.129L221.605 546.155C222.525 546.255 223.357 546.522 224.101 546.955C224.851 547.395 225.428 547.96 225.833 548.651C226.237 549.343 226.427 550.11 226.404 550.954C226.381 551.985 226.038 552.809 225.376 553.424C224.719 554.039 223.864 554.347 222.809 554.347L222.809 552.396C223.354 552.396 223.8 552.261 224.145 551.991C224.491 551.728 224.675 551.344 224.699 550.84C224.722 550.026 224.377 549.384 223.662 548.915C222.947 548.446 221.939 548.194 220.638 548.159C219.062 548.118 218.262 548.663 218.239 549.794ZM228.54 559.541L226.228 559.137L226.228 560.763L224.646 560.49L224.646 558.856L219.32 557.959C219.174 557.942 219.042 557.939 218.925 557.95C218.544 557.985 218.344 558.22 218.327 558.653C218.327 558.87 218.353 559.116 218.406 559.392L216.736 559.251C216.613 558.818 216.551 558.381 216.551 557.942C216.563 557.215 216.809 556.67 217.29 556.307C217.776 555.949 218.418 555.809 219.215 555.885L224.646 556.773L224.646 555.252L226.228 555.533L226.228 557.045L228.54 557.449L228.54 559.541ZM221.508 561.018C222.44 561.117 223.287 561.39 224.049 561.835C224.81 562.286 225.399 562.863 225.815 563.567C226.231 564.27 226.427 565.049 226.404 565.904C226.392 566.719 226.175 567.422 225.754 568.014C225.332 568.606 224.755 569.036 224.022 569.306C223.29 569.581 222.475 569.678 221.579 569.596C220.571 569.502 219.68 569.227 218.907 568.77C218.133 568.318 217.539 567.738 217.123 567.029C216.713 566.326 216.519 565.544 216.543 564.683C216.554 563.874 216.768 563.174 217.184 562.582C217.606 561.996 218.18 561.566 218.907 561.29C219.639 561.015 220.445 560.915 221.324 560.991L221.508 561.018ZM220.304 563.066C219.689 563.095 219.194 563.256 218.819 563.549C218.45 563.848 218.257 564.261 218.239 564.788C218.221 565.503 218.497 566.101 219.065 566.581C219.633 567.068 220.41 567.372 221.394 567.495L222.256 567.548C223.006 567.548 223.594 567.399 224.022 567.1C224.45 566.801 224.675 566.367 224.699 565.799C224.722 564.908 224.286 564.205 223.389 563.69C222.844 563.379 222.217 563.183 221.508 563.101C221.016 563.054 220.615 563.042 220.304 563.066ZM224.277 576.776C224.336 576.507 224.365 576.234 224.365 575.959C224.388 575.045 224.01 574.318 223.231 573.779L216.718 572.637L216.718 570.554L226.228 572.197L226.237 574.175L225.156 573.964C226.017 574.614 226.439 575.364 226.422 576.214C226.422 576.407 226.378 576.674 226.29 577.014L224.277 576.776ZM216.718 581.426L229.515 583.641L229.507 587.104C229.507 588.17 229.24 589.087 228.707 589.855C228.179 590.628 227.447 591.188 226.509 591.533C225.578 591.879 224.55 591.984 223.425 591.85L222.73 591.753C221.552 591.577 220.507 591.188 219.592 590.584C218.684 589.986 217.978 589.213 217.474 588.264C216.97 587.315 216.718 586.272 216.718 585.135L216.718 581.426ZM227.722 585.504L218.494 583.904L218.485 585.188C218.485 586.348 218.851 587.309 219.584 588.07C220.322 588.838 221.339 589.33 222.633 589.547C223.524 589.699 224.3 589.755 224.963 589.714C225.812 589.661 226.477 589.412 226.958 588.967C227.438 588.527 227.69 587.915 227.714 587.13L227.722 585.504ZM216.543 597.026C216.56 596.2 216.768 595.483 217.167 594.873C217.565 594.27 218.11 593.821 218.801 593.528C219.493 593.241 220.263 593.133 221.113 593.203L221.473 593.23C222.44 593.335 223.307 593.616 224.075 594.073C224.848 594.536 225.434 595.11 225.833 595.796C226.231 596.482 226.422 597.226 226.404 598.028C226.381 599.218 225.938 600.109 225.077 600.7C224.216 601.298 223.093 601.524 221.711 601.377L220.797 601.254L220.797 595.269C220.041 595.216 219.431 595.368 218.968 595.726C218.506 596.083 218.268 596.575 218.257 597.202C218.227 598.099 218.617 598.925 219.425 599.681L218.318 600.735C217.75 600.337 217.307 599.813 216.991 599.162C216.68 598.512 216.531 597.8 216.543 597.026ZM224.699 597.914C224.734 596.813 223.955 595.986 222.361 595.436L222.352 599.382L222.537 599.417C222.806 599.458 223.07 599.461 223.328 599.426C223.744 599.361 224.072 599.197 224.312 598.934C224.552 598.67 224.681 598.33 224.699 597.914ZM219.355 607.863C219.935 607.963 220.337 607.585 220.559 606.73C220.788 605.88 220.969 605.3 221.104 604.989C221.62 603.782 222.405 603.199 223.46 603.24C224.315 603.27 225.021 603.656 225.578 604.401C226.14 605.151 226.416 606.047 226.404 607.09C226.392 608.098 226.108 608.918 225.551 609.551C224.995 610.19 224.265 610.503 223.363 610.491L223.372 608.426C223.811 608.438 224.154 608.318 224.4 608.066C224.652 607.814 224.784 607.468 224.796 607.028C224.796 606.566 224.681 606.167 224.453 605.833C224.224 605.505 223.925 605.315 223.556 605.262C223.023 605.18 222.651 605.555 222.44 606.387C222.235 607.219 222.045 607.834 221.869 608.233C221.359 609.393 220.562 609.952 219.478 609.911C218.875 609.882 218.347 609.683 217.896 609.314C217.451 608.95 217.108 608.461 216.868 607.846C216.633 607.231 216.525 606.577 216.543 605.886C216.554 604.849 216.856 603.987 217.448 603.302C218.04 602.622 218.799 602.288 219.724 602.3L219.716 604.313C219.206 604.324 218.819 604.477 218.555 604.77C218.292 605.063 218.157 605.464 218.151 605.974C218.151 606.489 218.257 606.917 218.467 607.257C218.684 607.603 218.98 607.805 219.355 607.863ZM216.718 613.497L216.718 611.414L226.228 613.067L226.228 615.15L216.718 613.497ZM228.663 613.365C228.985 613.365 229.26 613.471 229.489 613.682C229.717 613.893 229.838 614.177 229.849 614.534C229.861 614.874 229.756 615.155 229.533 615.378C229.316 615.607 229.05 615.721 228.733 615.721C228.399 615.721 228.124 615.609 227.907 615.387C227.69 615.17 227.576 614.892 227.564 614.552C227.552 614.218 227.652 613.937 227.863 613.708C228.08 613.48 228.346 613.365 228.663 613.365ZM221.482 616.31C222.431 616.421 223.29 616.676 224.057 617.074C224.825 617.479 225.411 617.985 225.815 618.595C226.225 619.204 226.425 619.901 226.413 620.687C226.389 621.73 226.006 622.518 225.261 623.051L226.237 623.376L226.228 625.275L216.982 623.701C215.74 623.526 214.753 623.001 214.02 622.128C213.282 621.261 212.93 620.203 212.966 618.955C212.977 618.287 213.13 617.654 213.423 617.057C213.716 616.459 214.102 615.979 214.583 615.615L215.84 616.723C215.072 617.279 214.676 618.006 214.653 618.902C214.63 619.582 214.817 620.165 215.216 620.651C215.608 621.144 216.171 621.472 216.903 621.636L217.571 621.785C216.862 621.053 216.519 620.221 216.543 619.289C216.554 618.399 216.891 617.684 217.553 617.145C218.216 616.611 219.106 616.318 220.225 616.266C220.577 616.248 220.996 616.263 221.482 616.31ZM221.298 618.375C220.999 618.34 220.676 618.328 220.331 618.34C219.71 618.352 219.217 618.492 218.854 618.762C218.491 619.031 218.3 619.415 218.283 619.913C218.254 620.704 218.62 621.396 219.382 621.987L223.583 622.734C224.28 622.43 224.64 621.888 224.664 621.109C224.681 620.405 224.409 619.814 223.846 619.333C223.284 618.853 222.496 618.539 221.482 618.393L221.298 618.375ZM226.237 629.397L225.121 629.186C226 630 226.427 630.941 226.404 632.007C226.386 632.898 226.067 633.557 225.446 633.984C224.831 634.412 223.969 634.57 222.862 634.459L216.718 633.431L216.718 631.348L222.888 632.385C223.14 632.414 223.375 632.417 223.592 632.394C224.289 632.318 224.646 631.901 224.664 631.146C224.675 630.355 224.286 629.66 223.495 629.063L216.718 627.876L216.718 625.793L226.228 627.437L226.237 629.397Z" fill="white"/>
<path d="M174.699 529.805L179.034 526.655L174.699 523.55L174.699 521.825L180.084 525.77L185.199 522.065L185.199 523.775L181.164 526.715L185.199 529.625L185.199 531.26L180.129 527.555L174.699 531.53L174.699 529.805ZM185.199 532.946L185.199 537.371C185.199 538.481 184.979 539.466 184.539 540.326C184.099 541.186 183.479 541.851 182.679 542.321C181.889 542.801 180.979 543.041 179.949 543.041C178.919 543.041 178.004 542.801 177.204 542.321C176.414 541.851 175.799 541.186 175.359 540.326C174.919 539.466 174.699 538.481 174.699 537.371L174.699 532.946L185.199 532.946ZM176.004 537.281C176.004 538.131 176.169 538.876 176.499 539.516C176.829 540.166 177.289 540.666 177.879 541.016C178.479 541.366 179.169 541.541 179.949 541.541C180.729 541.541 181.414 541.366 182.004 541.016C182.604 540.666 183.069 540.166 183.399 539.516C183.729 538.876 183.894 538.131 183.894 537.281L183.894 534.446L176.004 534.446L176.004 537.281ZM177.279 557.647L177.279 555.652L174.699 555.652L174.699 554.197L177.279 554.197L177.279 548.362L178.329 548.362L185.199 553.732L185.199 555.352L178.569 550.207L178.569 554.242L180.849 554.242L180.849 555.652L178.569 555.652L178.569 557.647L177.279 557.647ZM185.199 563.43L185.199 567.855C185.199 568.965 184.979 569.95 184.539 570.81C184.099 571.67 183.479 572.335 182.679 572.805C181.889 573.285 180.979 573.525 179.949 573.525C178.919 573.525 178.004 573.285 177.204 572.805C176.414 572.335 175.799 571.67 175.359 570.81C174.919 569.95 174.699 568.965 174.699 567.855L174.699 563.43L185.199 563.43ZM176.004 567.765C176.004 568.615 176.169 569.36 176.499 570C176.829 570.65 177.289 571.15 177.879 571.5C178.479 571.85 179.169 572.025 179.949 572.025C180.729 572.025 181.414 571.85 182.004 571.5C182.604 571.15 183.069 570.65 183.399 570C183.729 569.36 183.894 568.615 183.894 567.765L183.894 564.93L176.004 564.93L176.004 567.765ZM182.649 583.022L174.699 583.022L174.699 581.657L175.899 581.657C175.489 581.367 175.169 580.982 174.939 580.502C174.719 580.032 174.609 579.517 174.609 578.957C174.609 577.897 174.899 577.062 175.479 576.452C176.069 575.842 176.934 575.537 178.074 575.537L182.649 575.537L182.649 576.977L178.239 576.977C177.469 576.977 176.884 577.162 176.484 577.532C176.094 577.902 175.899 578.432 175.899 579.122C175.899 579.882 176.129 580.482 176.589 580.922C177.049 581.362 177.699 581.582 178.539 581.582L182.649 581.582L182.649 583.022ZM182.724 595.709C182.724 596.709 182.434 597.499 181.854 598.079C181.274 598.669 180.414 598.964 179.274 598.964L174.699 598.964L174.699 597.524L179.109 597.524C179.879 597.524 180.459 597.344 180.849 596.984C181.239 596.634 181.434 596.129 181.434 595.469C181.434 594.739 181.204 594.159 180.744 593.729C180.294 593.299 179.644 593.084 178.794 593.084L174.699 593.084L174.699 591.644L179.109 591.644C179.879 591.644 180.459 591.464 180.849 591.104C181.239 590.754 181.434 590.249 181.434 589.589C181.434 588.859 181.204 588.279 180.744 587.849C180.294 587.419 179.644 587.204 178.794 587.204L174.699 587.204L174.699 585.764L182.649 585.764L182.649 587.144L181.464 587.144C181.874 587.434 182.184 587.814 182.394 588.284C182.614 588.754 182.724 589.289 182.724 589.889C182.724 590.509 182.599 591.059 182.349 591.539C182.099 592.019 181.734 592.389 181.254 592.649C181.714 592.949 182.074 593.364 182.334 593.894C182.594 594.434 182.724 595.039 182.724 595.709ZM182.724 611.558C182.724 612.558 182.434 613.348 181.854 613.928C181.274 614.518 180.414 614.813 179.274 614.813L174.699 614.813L174.699 613.373L179.109 613.373C179.879 613.373 180.459 613.193 180.849 612.833C181.239 612.483 181.434 611.978 181.434 611.318C181.434 610.588 181.204 610.008 180.744 609.578C180.294 609.148 179.644 608.933 178.794 608.933L174.699 608.933L174.699 607.493L179.109 607.493C179.879 607.493 180.459 607.313 180.849 606.953C181.239 606.603 181.434 606.098 181.434 605.438C181.434 604.708 181.204 604.128 180.744 603.698C180.294 603.268 179.644 603.053 178.794 603.053L174.699 603.053L174.699 601.613L182.649 601.613L182.649 602.993L181.464 602.993C181.874 603.283 182.184 603.663 182.394 604.133C182.614 604.603 182.724 605.138 182.724 605.738C182.724 606.358 182.599 606.908 182.349 607.388C182.099 607.868 181.734 608.238 181.254 608.498C181.714 608.798 182.074 609.213 182.334 609.743C182.594 610.283 182.724 610.888 182.724 611.558ZM182.649 617.463L182.649 618.903L174.699 618.903L174.699 617.463L182.649 617.463ZM184.179 618.183C184.179 617.903 184.269 617.668 184.449 617.478C184.629 617.298 184.849 617.208 185.109 617.208C185.369 617.208 185.589 617.298 185.769 617.478C185.959 617.668 186.054 617.903 186.054 618.183C186.054 618.463 185.964 618.693 185.784 618.873C185.614 619.063 185.399 619.158 185.139 619.158C184.869 619.158 184.639 619.063 184.449 618.873C184.269 618.693 184.179 618.463 184.179 618.183ZM178.629 628.837C178.519 628.837 178.374 628.827 178.194 628.807L178.194 622.357C177.494 622.447 176.929 622.752 176.499 623.272C176.079 623.802 175.869 624.457 175.869 625.237C175.869 626.187 176.189 626.952 176.829 627.532L175.899 628.327C175.479 627.967 175.159 627.517 174.939 626.977C174.719 626.447 174.609 625.852 174.609 625.192C174.609 624.352 174.779 623.607 175.119 622.957C175.469 622.307 175.954 621.802 176.574 621.442C177.194 621.092 177.894 620.917 178.674 620.917C179.444 620.917 180.139 621.087 180.759 621.427C181.379 621.777 181.859 622.252 182.199 622.852C182.549 623.462 182.724 624.147 182.724 624.907C182.724 625.667 182.549 626.342 182.199 626.932C181.859 627.532 181.379 627.997 180.759 628.327C180.139 628.667 179.429 628.837 178.629 628.837ZM181.509 624.907C181.509 624.217 181.299 623.637 180.879 623.167C180.459 622.707 179.909 622.437 179.229 622.357L179.229 627.457C179.899 627.377 180.444 627.102 180.864 626.632C181.294 626.172 181.509 625.597 181.509 624.907ZM174.609 633.117C174.609 632.467 174.694 631.842 174.864 631.242C175.044 630.642 175.269 630.172 175.539 629.832L176.679 630.432C176.429 630.782 176.229 631.207 176.079 631.707C175.929 632.207 175.854 632.712 175.854 633.222C175.854 634.482 176.214 635.112 176.934 635.112C177.174 635.112 177.364 635.027 177.504 634.857C177.644 634.687 177.744 634.472 177.804 634.212C177.874 633.962 177.949 633.602 178.029 633.132C178.129 632.492 178.244 631.967 178.374 631.557C178.504 631.157 178.724 630.812 179.034 630.522C179.344 630.232 179.779 630.087 180.339 630.087C181.059 630.087 181.634 630.387 182.064 630.987C182.504 631.587 182.724 632.392 182.724 633.402C182.724 633.932 182.659 634.462 182.529 634.992C182.399 635.522 182.224 635.957 182.004 636.297L180.864 635.682C181.284 635.032 181.494 634.267 181.494 633.387C181.494 632.777 181.394 632.312 181.194 631.992C180.994 631.672 180.729 631.512 180.399 631.512C180.139 631.512 179.934 631.602 179.784 631.782C179.634 631.962 179.524 632.182 179.454 632.442C179.384 632.712 179.304 633.087 179.214 633.567C179.104 634.207 178.984 634.722 178.854 635.112C178.734 635.512 178.524 635.852 178.224 636.132C177.924 636.412 177.504 636.552 176.964 636.552C176.244 636.552 175.669 636.242 175.239 635.622C174.819 635.012 174.609 634.177 174.609 633.117Z" fill="white"/>
<defs>
<linearGradient id="paint0_linear" x1="267.218" y1="450.324" x2="267.218" y2="191.14" gradientUnits="userSpaceOnUse">
<stop stop-color="#808080" stop-opacity="0.25"/>
<stop offset="0.53514" stop-color="#808080" stop-opacity="0.12"/>
<stop offset="1" stop-color="#808080" stop-opacity="0.1"/>
</linearGradient>
<linearGradient id="paint1_linear" x1="68548" y1="25452.8" x2="68548" y2="0" gradientUnits="userSpaceOnUse">
<stop stop-color="#808080" stop-opacity="0.25"/>
<stop offset="0.53514" stop-color="#808080" stop-opacity="0.12"/>
<stop offset="1" stop-color="#808080" stop-opacity="0.1"/>
</linearGradient>
<linearGradient id="paint2_linear" x1="116300" y1="44274.9" x2="116300" y2="180.75" gradientUnits="userSpaceOnUse">
<stop stop-color="#808080" stop-opacity="0.25"/>
<stop offset="0.53514" stop-color="#808080" stop-opacity="0.12"/>
<stop offset="1" stop-color="#808080" stop-opacity="0.1"/>
</linearGradient>
<linearGradient id="paint3_linear" x1="174561" y1="96868.8" x2="174561" y2="52774.7" gradientUnits="userSpaceOnUse">
<stop stop-color="#808080" stop-opacity="0.25"/>
<stop offset="0.53514" stop-color="#808080" stop-opacity="0.12"/>
<stop offset="1" stop-color="#808080" stop-opacity="0.1"/>
</linearGradient>
<linearGradient id="paint4_linear" x1="-19675.8" y1="137446" x2="-19675.8" y2="114476" gradientUnits="userSpaceOnUse">
<stop stop-color="#808080" stop-opacity="0.25"/>
<stop offset="0.53514" stop-color="#808080" stop-opacity="0.12"/>
<stop offset="1" stop-color="#808080" stop-opacity="0.1"/>
</linearGradient>
<linearGradient id="paint5_linear" x1="-21178.7" y1="137446" x2="-21178.7" y2="114476" gradientUnits="userSpaceOnUse">
<stop stop-color="#808080" stop-opacity="0.25"/>
<stop offset="0.53514" stop-color="#808080" stop-opacity="0.12"/>
<stop offset="1" stop-color="#808080" stop-opacity="0.1"/>
</linearGradient>
<linearGradient id="paint6_linear" x1="10564.5" y1="122817" x2="10564.5" y2="99847.5" gradientUnits="userSpaceOnUse">
<stop stop-color="#808080" stop-opacity="0.25"/>
<stop offset="0.53514" stop-color="#808080" stop-opacity="0.12"/>
<stop offset="1" stop-color="#808080" stop-opacity="0.1"/>
</linearGradient>
<linearGradient id="paint7_linear" x1="12161.1" y1="122817" x2="12161.1" y2="99847.5" gradientUnits="userSpaceOnUse">
<stop stop-color="#808080" stop-opacity="0.25"/>
<stop offset="0.53514" stop-color="#808080" stop-opacity="0.12"/>
<stop offset="1" stop-color="#808080" stop-opacity="0.1"/>
</linearGradient>
<linearGradient id="paint8_linear" x1="28387.4" y1="126618" x2="28387.4" y2="102196" gradientUnits="userSpaceOnUse">
<stop stop-color="#808080" stop-opacity="0.25"/>
<stop offset="0.53514" stop-color="#808080" stop-opacity="0.12"/>
<stop offset="1" stop-color="#808080" stop-opacity="0.1"/>
</linearGradient>
<clipPath id="clip0">
<rect width="115.901" height="115.862" fill="white" transform="translate(41.1881 18.1931)"/>
</clipPath>
<clipPath id="clip1">
<rect width="116.859" height="175.229" fill="white" transform="translate(209.772 233.638)"/>
</clipPath>
<clipPath id="clip2">
<rect width="115.901" height="115.862" fill="white" transform="translate(209.772 18.1931)"/>
</clipPath>
<clipPath id="clip3">
<rect width="114.944" height="114.904" fill="white" transform="translate(482.763 42.1315)"/>
</clipPath>
</defs>
</svg>
